<svg xmlns="http://www.w3.org/2000/svg" viewBox="0 0 70 70"><defs><style>.cls-1{fill:#f0d0a4;}.cls-2{fill:#2d2926;}.cls-3{fill:#e94b3c;}</style></defs><title>Artboard 2</title><g id="Layer_4" data-name="Layer 4"><path class="cls-1" d="M114.19,31.15a94.21,94.21,0,0,0-19.4,19.72c-3,4.1-5.76,8.56-10,11.44-4.4,3-11.51,3.19-16.84,3.19-17.5,0-33-1.5-47.59-1.11-4.7.12-17.73.72-22.41,1.11-6.87.57-5.5,0-18.5,0s-17-2-22-3-7.72-2-13-7c-1.93-1.84-10.42-11.39-11-14,7.42,6,6.63,5.19,13,9,15.31,9.15,28.84,8.28,38.37,7.72,9.91-.59,11.25-2,22.63-2.72,6.33-.42,11.75-2.13,18-1,11.06,2,6.76-.84,18-1,3.64,0,21.48,2.09,25,3s9.1,3.64,12-2,7.55-24.13,11.77-28.87a5.62,5.62,0,0,1,3.16-2.11,6.35,6.35,0,0,1,3.41.77c2.76,1.19,8,3.74,15.66,6.78"/><path class="cls-2" d="M114.06,30.93A92.74,92.74,0,0,0,95.8,48.78c-2.53,3.27-4.71,6.83-7.52,9.86a19.26,19.26,0,0,1-4.52,3.78,17.74,17.74,0,0,1-5.34,1.85A56.41,56.41,0,0,1,67.1,65c-4.69,0-9.38-.14-14.07-.32-8.75-.32-17.5-.83-26.26-.88-6.39,0-12.77.27-19.15.59-2.85.15-5.7.29-8.54.5-1.9.14-3.8.32-5.71.34-1.72,0-3.44-.09-5.16-.14C-15.48,65-19.18,65-22.88,65a70.81,70.81,0,0,1-10.38-.88c-2.14-.37-4.24-.9-6.34-1.43-2.4-.61-4.88-1-7.21-1.8A24,24,0,0,1-55.24,55c-1.6-1.56-3.06-3.26-4.51-4.95a67.77,67.77,0,0,1-5.13-6.57A7.34,7.34,0,0,1-66,41.36l-.88.51a87,87,0,0,0,7.69,5.85,106.35,106.35,0,0,0,9.25,5.36,57.76,57.76,0,0,0,25.06,6A109.46,109.46,0,0,0-4.5,57.51c3.75-.63,7.5-1.12,11.29-1.39,5-.36,10-1.56,15.05-1.42,3.69.1,7.37,1.45,11.08,1,2.09-.26,4-1.11,6.15-1.37,5.74-.7,11.6.23,17.3.92,3,.36,6,.75,9,1.23,2.24.36,4.33,1,6.53,1.59,3,.75,6.22.68,8.27-2C81.81,54,82.61,51,83.49,48.53c2.25-6.44,4.09-13.16,7.16-19.27a16.29,16.29,0,0,1,1.86-3,6.8,6.8,0,0,1,2.19-1.84c1.33-.62,2.71-.05,4,.49,3,1.3,5.95,2.7,8.95,4,2.24,1,4.48,1.88,6.74,2.78.72.29,1-.87.32-1.16-4.08-1.63-8.11-3.39-12.12-5.2-1.22-.56-2.45-1.13-3.69-1.66-2.06-.87-4-1.09-5.8.41C90.91,25.8,89.68,28.47,88.6,31c-1.38,3.18-2.53,6.46-3.65,9.74s-2.14,6.41-3.31,9.59c-.93,2.53-1.92,5.92-4.78,6.83s-5.68-.56-8.36-1.21c-2.21-.53-4.51-.8-6.76-1.11C56,54,50.2,53.18,44.42,53a28.42,28.42,0,0,0-8.62.87c-.85.23-1.68.53-2.55.69a13.22,13.22,0,0,1-3.61,0c-2.28-.22-4.52-.78-6.82-.93a37.46,37.46,0,0,0-7.25.36c-2.46.31-4.91.71-7.38.91s-4.65.35-7,.63c-3.12.38-6.2,1-9.3,1.45-3.55.51-7.13.73-10.71.9-7.95.37-15.87-.21-23.46-2.75a69.34,69.34,0,0,1-13.1-6.32,59.94,59.94,0,0,1-6-3.9c-1.6-1.23-3.17-2.5-4.74-3.76a.53.53,0,0,0-.88.51,7.87,7.87,0,0,0,1.13,2.24C-65.18,45-64.4,46-63.61,47c1.75,2.25,3.61,4.43,5.53,6.54a42.16,42.16,0,0,0,6,5.61,21.14,21.14,0,0,0,8.34,3.64c4.63,1,9.17,2.3,13.9,2.8,6.8.72,13.67.4,20.49.64,4,.14,7.91-.28,11.87-.51,6-.35,11.9-.65,17.86-.81,8.66-.23,17.32.2,26,.55,4.73.19,9.46.37,14.19.46,4.23.09,8.5.2,12.73-.06,3.63-.22,7.48-.72,10.72-2.5,3.44-1.87,6-5.12,8.28-8.23,2.56-3.52,5-7.08,7.89-10.38a96.25,96.25,0,0,1,9.21-9.3c1.61-1.42,3.28-2.79,5-4.11.24-.18-.08-.59-.32-.41Z"/></g><g id="Layer_1" data-name="Layer 1"><path class="cls-3" d="M-56.5,51.5c4,3,6,6,11,7s12,3,19,3,17,1.36,26.5,1c10.23-.38,19.5-4,27.5-4s11-1,17,0,21.5,4,25.5,4A37.91,37.91,0,0,0,79,61c6.84-2.37,6.24-5.3,9-12s2.55-11.74,6-18c1.49-2.7,7.34-3.89,10.24-2.85l.24.19c4.66,4.63,13.65,7.91,18.8,6.24a43.73,43.73,0,0,0,11.07-6,11,11,0,0,0,2.18-2.05,18.58,18.58,0,0,0,3-4.77c.39-1.41-3.44-6.87-5.27-8.87-2.45-2.68-3.06-4.17-6.18-6C123.33,4,118.2,1.54,112.71,1.5a46.22,46.22,0,0,0-10.46,1.86c-9.52,3-15.54,9.51-19.22,18.79-2.29,5.77-2.52,12.15-2.33,18.36.08,2.71-.27,7.07-.29,8.12a10.68,10.68,0,0,1-1,4,13,13,0,0,1-3.86,3.6c-1.69.85-3.26,0-5.54-.7-4.72-1.42-9.7-1.87-14.5-3h0l-12-2h-18l-11,2S9.55,53.62,0,55.5c-5.29,1-6.5,1-17.5,0s-8.68-.7-15-1c-9-.42-8-1-12-2a30,30,0,0,1-10-4c-3-2-10.93-6.3-14-9C-68.5,39.5-60.5,48.5-56.5,51.5Z"/><path class="cls-2" d="M-56.75,51.93c2,1.49,3.69,3.25,5.7,4.68a16.07,16.07,0,0,0,6.28,2.55c5.53,1.17,11,2.57,16.69,2.81,2.64.11,5.29.11,7.94.27,2.8.17,5.61.38,8.42.54a89.74,89.74,0,0,0,18-.37c5.5-.79,10.88-2.28,16.39-3a80.52,80.52,0,0,1,8.22-.43c2.18-.08,4.36-.26,6.54-.34a50.32,50.32,0,0,1,11.14,1.11c4.09.73,8.17,1.47,12.27,2.14A60.85,60.85,0,0,0,70,63a30.9,30.9,0,0,0,7.16-1,20.12,20.12,0,0,0,3.93-1.3,9.58,9.58,0,0,0,3.78-2.91,14.94,14.94,0,0,0,1.89-4c.77-2.18,1.64-4.31,2.41-6.49.88-2.5,1.47-5.08,2.12-7.65a35.25,35.25,0,0,1,2.95-8.08c1-1.81,2.94-2.61,4.87-3a12.12,12.12,0,0,1,2.94-.28,3.59,3.59,0,0,1,2.67,1,24,24,0,0,0,5.49,3.66c3.68,1.81,8.2,3.24,12.32,2.38a24.64,24.64,0,0,0,7-3,54.11,54.11,0,0,0,4.71-3.05A16.24,16.24,0,0,0,138,25.36c.81-1.14,2.24-2.81,2-4.33a13.34,13.34,0,0,0-2.28-4.45,38.31,38.31,0,0,0-3.36-4.36A34.92,34.92,0,0,0,130,7.54a35.13,35.13,0,0,0-7.22-4.08,27.19,27.19,0,0,0-7.53-2.27,22.54,22.54,0,0,0-6.76.24A37,37,0,0,0,96,5.53a29,29,0,0,0-9.38,8.73,35.46,35.46,0,0,0-5.77,14c-1,5.45-.47,10.9-.72,16.39A34.38,34.38,0,0,1,79.74,50a6.72,6.72,0,0,1-1.14,2.9,13.22,13.22,0,0,1-2.51,2.39c-2.29,1.67-5,0-7.46-.66-3-.78-6.11-1.24-9.18-1.8C54.23,51.85,49,50.65,43.71,50a39.73,39.73,0,0,0-4.63,0H29.74a33.61,33.61,0,0,0-4.49,0c-2.57.35-5.12.93-7.66,1.39-5.16.94-10.26,2.1-15.4,3.13A44.22,44.22,0,0,1-7,55.76c-4.55,0-9.1-.64-13.62-1-2.64-.23-5.27-.46-7.92-.56a95.15,95.15,0,0,1-10.26-.65,61.52,61.52,0,0,1-7-1.86,29.46,29.46,0,0,1-7.37-2.9c-1.58-.92-3.11-2-4.68-2.89-3.48-2.08-7.23-4-10.32-6.71a.5.5,0,0,0-.7.7c1.49,1.69,3,3.34,4.58,5a65.63,65.63,0,0,0,7.52,7.11c.51.39,1-.48.5-.86a65.52,65.52,0,0,1-7.48-7.14q-2.25-2.35-4.42-4.78l-.7.7c3.08,2.67,6.8,4.66,10.29,6.74,1.55.93,3.07,1.92,4.63,2.86a27.85,27.85,0,0,0,6.55,2.79c1.64.49,3.31.85,4.93,1.38a20.62,20.62,0,0,0,2.77.75,73.54,73.54,0,0,0,10.38.76c7,.25,14,1.29,21,1.59a32.71,32.71,0,0,0,7.77-.61c4.31-.82,8.6-1.71,12.88-2.63,4-.86,8.11-1.56,12.17-2.29.34-.06.67-.14,1-.19s-.17,0,.19,0H37.16c2.08,0,4.16-.06,6.23,0,.24,0-.17,0,.14,0s.76.13,1.14.19l4.29.71c2.13.36,4.28.67,6.41,1.07l8.81,1.67c1.41.27,2.8.56,4.19.91s2.77.92,4.19,1.28c2.26.57,3.84-.37,5.45-1.89a8.19,8.19,0,0,0,2.69-4.71,32.75,32.75,0,0,0,.39-5.05c.12-2.46.07-4.89.06-7.35,0-6,.65-11.91,3.15-17.42A32.11,32.11,0,0,1,92,9.6a28.74,28.74,0,0,1,11.91-6.2c4.66-1.19,9.3-1.93,14-.64a35.16,35.16,0,0,1,7.93,3.39,19.45,19.45,0,0,1,5.74,4.4c2.53,3,5.31,6,7,9.58a2.57,2.57,0,0,1,.37,1.63,9.59,9.59,0,0,1-1.59,2.77,15.55,15.55,0,0,1-3.83,4,49.68,49.68,0,0,1-5.36,3.37,18.51,18.51,0,0,1-7,2.61c-4.46.39-9.17-1.43-12.88-3.76a21.11,21.11,0,0,1-2.7-2,4.22,4.22,0,0,0-1.86-1.24,11.76,11.76,0,0,0-5.71.3,7.82,7.82,0,0,0-4.29,2.62,24.34,24.34,0,0,0-2.94,7.08c-.71,2.49-1.23,5-2,7.5s-1.78,4.81-2.62,7.24a22.23,22.23,0,0,1-1.85,4.45,8.26,8.26,0,0,1-3.59,3,19.66,19.66,0,0,1-4.16,1.36,28.06,28.06,0,0,1-6.88.91A70.21,70.21,0,0,1,60,60.71c-4-.66-7.93-1.38-11.9-2.09a49.26,49.26,0,0,0-11-1c-2.21.1-4.42.27-6.63.34-2.58.08-5.13.06-7.69.39-5.42.72-10.71,2.17-16.1,3a87.13,87.13,0,0,1-18,.48c-5.39-.3-10.75-.68-16.15-.82-5.79-.15-11.38-1.6-17-2.79a15.63,15.63,0,0,1-6.28-2.62c-1.9-1.41-3.58-3.08-5.47-4.51C-56.76,50.68-57.26,51.55-56.75,51.93Z"/></g><g id="Layer_5" data-name="Layer 5"><path class="cls-2" d="M66.73,64.75h-.12l.13,0a1,1,0,0,1-.33-.09l.12,0a1.22,1.22,0,0,1-.29-.17l.1.08a1.36,1.36,0,0,1-.24-.24l.08.1a1.61,1.61,0,0,1-.17-.28l0,.12,0-.13a.57.57,0,0,0-.23-.3.53.53,0,0,0-.39,0,.52.52,0,0,0-.35.62,1.85,1.85,0,0,0,1.68,1.28.5.5,0,0,0,.5-.5.51.51,0,0,0-.5-.5Z"/><path class="cls-2" d="M61,64.85a1.25,1.25,0,0,1-.37-.09.14.14,0,0,1-.09,0c.09.07,0,0,0,0l-.17-.08-.16-.1s-.08-.05-.09-.07l0,0,0,0-.28-.27-.13-.15,0,0,0,0-.24-.36A8.67,8.67,0,0,1,59,62.8a.52.52,0,0,0-.69-.18.52.52,0,0,0-.18.69c.57,1.08,1.33,2.33,2.66,2.51a.55.55,0,0,0,.38,0,.46.46,0,0,0,.23-.3.5.5,0,0,0-.35-.62Z"/><path class="cls-2" d="M55.9,64.7a7.76,7.76,0,0,1-4.45-2.81.5.5,0,0,0-.71,0,.51.51,0,0,0,0,.7,8.67,8.67,0,0,0,4.9,3.08c.62.14.89-.83.26-1Z"/><path class="cls-2" d="M45.67,64.49c.07,0,0,0,0,0a.45.45,0,0,1-.16-.12,6.14,6.14,0,0,1-.43-.45,10.58,10.58,0,0,1-.74-.89,12.41,12.41,0,0,1-1.24-2.11.5.5,0,1,0-.86.5,12.19,12.19,0,0,0,1.44,2.37,11.91,11.91,0,0,0,.92,1.08,2.43,2.43,0,0,0,.54.47,1.17,1.17,0,0,0,.82.15.5.5,0,0,0,.35-.61.52.52,0,0,0-.62-.35Z"/><path class="cls-2" d="M38.71,64.07a5,5,0,0,1-2.61-3.22.5.5,0,0,0-1,.27,6.05,6.05,0,0,0,3.08,3.81.51.51,0,0,0,.68-.18.5.5,0,0,0-.18-.68Z"/><path class="cls-2" d="M30,63.45l-.19-.13-.09-.07s-.09-.07,0,0l-.34-.3c-.11-.1-.21-.2-.31-.31a1.15,1.15,0,0,1-.14-.17l-.08-.09c0-.07,0,0,0,0a4.49,4.49,0,0,1-.47-.75,1.24,1.24,0,0,1-.1-.2.3.3,0,0,1,0-.08c-.06-.14,0,.09,0,0a3.52,3.52,0,0,1-.15-.42.51.51,0,0,0-.62-.35.5.5,0,0,0-.35.61,5.89,5.89,0,0,0,2.43,3.2.5.5,0,1,0,.5-.86Z"/><path class="cls-2" d="M22.14,63.67a.53.53,0,0,0-.17,0s.1,0,0,0l-.07,0s-.07,0-.08-.05.07.06,0,0l-.12-.11-.25-.27-.1-.13L21.33,63c-.06-.08,0,0,0,0a6.68,6.68,0,0,1-.72-1.24.47.47,0,0,0-.3-.23.5.5,0,0,0-.38,0,.5.5,0,0,0-.23.3.56.56,0,0,0,0,.38,6.53,6.53,0,0,0,.85,1.41,2.26,2.26,0,0,0,1.28,1,.59.59,0,0,0,.39,0,.53.53,0,0,0,.23-.3c.05-.23-.07-.58-.35-.61Z"/><path class="cls-2" d="M15.23,63.79l-.17-.18L15,63.52l-.05-.05c0-.06,0,0,0,0a4.3,4.3,0,0,1-.49-.82l-.06-.11s.05.1,0,0l0-.06-.09-.24a.5.5,0,1,0-1,.27,4.8,4.8,0,0,0,1.15,1.91.5.5,0,0,0,.71,0,.51.51,0,0,0,0-.7Z"/><path class="cls-2" d="M10.59,64.22a2,2,0,0,1-.24-.16l.1.08a2.59,2.59,0,0,1-.4-.41l.08.1a2.18,2.18,0,0,1-.29-.49l.05.12a2.23,2.23,0,0,1-.15-.52.46.46,0,0,0-.23-.3.5.5,0,0,0-.38,0,.53.53,0,0,0-.3.23.59.59,0,0,0-.05.39,2.73,2.73,0,0,0,1.3,1.87.5.5,0,1,0,.51-.86Z"/><path class="cls-2" d="M4.4,64.6A1.52,1.52,0,0,1,4,64.36l.1.08a1.82,1.82,0,0,1-.34-.34l.08.1a1.52,1.52,0,0,1-.24-.41l.05.12a1.18,1.18,0,0,1-.07-.2.51.51,0,0,0-.23-.29A.46.46,0,0,0,3,63.37a.5.5,0,0,0-.35.61,2.35,2.35,0,0,0,1.28,1.49.6.6,0,0,0,.19.06.46.46,0,0,0,.2,0,.52.52,0,0,0,.3-.23.51.51,0,0,0-.18-.69Z"/></g></svg>