<svg xmlns="http://www.w3.org/2000/svg" viewBox="0 0 70 70"><defs><style>.cls-1{fill:#f0d0a4;}.cls-2{fill:#2d2926;}.cls-3{fill:#e94b3c;}</style></defs><title>Artboard 2</title><g id="Layer_4" data-name="Layer 4"><path class="cls-1" d="M-44.19,31.15a94.21,94.21,0,0,1,19.4,19.72c3,4.1,5.76,8.56,10,11.44,4.4,3,11.51,3.19,16.84,3.19,17.5,0,33-1.5,47.59-1.11,4.7.12,17.73.72,22.41,1.11,6.87.57,5.5,0,18.5,0s17-2,22-3,7.72-2,13-7c1.93-1.84,10.42-11.39,11-14-7.42,6-6.63,5.19-13,9-15.31,9.15-28.84,8.28-38.37,7.72-9.91-.59-11.25-2-22.63-2.72-6.33-.42-11.75-2.13-18-1-11.06,2-6.76-.84-18-1-3.64,0-21.48,2.09-25,3s-9.1,3.64-12-2S-18,30.37-22.27,25.63a5.62,5.62,0,0,0-3.16-2.11,6.35,6.35,0,0,0-3.41.77c-2.76,1.19-8,3.74-15.66,6.78"/><path class="cls-2" d="M-44.38,31.34A96.35,96.35,0,0,1-25.83,50.2c2.44,3.29,4.62,6.81,7.5,9.75a18.25,18.25,0,0,0,4.53,3.53,19.21,19.21,0,0,0,5,1.69A55,55,0,0,0,2.36,66c4.87,0,9.74-.12,14.61-.29,8.85-.31,17.71-.82,26.57-.86,6.45,0,12.89.3,19.33.62,2.83.15,5.67.29,8.51.51,1.89.14,3.79.31,5.69.3s3.75-.11,5.63-.16c3.91-.11,7.83,0,11.75-.16a67.54,67.54,0,0,0,9.83-1c2.09-.39,4.15-.94,6.21-1.45a50,50,0,0,0,7.61-2,26.42,26.42,0,0,0,8.05-5.86c1.68-1.68,3.23-3.48,4.76-5.28a63.12,63.12,0,0,0,5-6.5A7.55,7.55,0,0,0,137,41.64a.53.53,0,0,0-.88-.51,82.69,82.69,0,0,1-7.66,5.79,101.14,101.14,0,0,1-9.54,5.45A57.37,57.37,0,0,1,93.69,58a120.1,120.1,0,0,1-20.13-1.76c-3.9-.66-7.81-1-11.75-1.34-5-.4-9.93-1.64-15-1.25-3.36.26-6.83,1.51-10.21.86-.87-.17-1.71-.47-2.57-.7A23.33,23.33,0,0,0,30,53.1c-5.73-.52-11.57.41-17.25,1.11C9.88,54.57,7,55,4.12,55.42c-2.23.36-4.31,1.07-6.5,1.6A8.29,8.29,0,0,1-7,57.09a6,6,0,0,1-3.33-3.45,80.13,80.13,0,0,1-3-8.09c-1.16-3.4-2.29-6.82-3.54-10.18A49.69,49.69,0,0,0-20.56,27a11.34,11.34,0,0,0-2.71-3.18c-1.9-1.44-3.85-1-5.88-.1-2.91,1.26-5.77,2.62-8.68,3.88-2.26,1-4.54,1.94-6.83,2.85-.71.29-.4,1.45.32,1.16,4.09-1.63,8.12-3.36,12.13-5.18,1.2-.54,2.4-1.1,3.62-1.62s2.58-1.08,3.89-.47a6.74,6.74,0,0,1,2.23,1.89c1.75,2.14,2.8,5,3.8,7.5,1.31,3.34,2.45,6.74,3.6,10.13,1,3,2,5.93,3.15,8.82,1.11,2.71,2.62,5.3,5.8,5.73C-3.31,58.83-.71,57.59,2,57c2.29-.52,4.66-.8,7-1.12,3.24-.44,6.5-.83,9.75-1.18,2.42-.25,4.85-.54,7.28-.6a28.41,28.41,0,0,1,8.61,1,15.57,15.57,0,0,0,6.69.45,66.75,66.75,0,0,1,7.2-.88,49,49,0,0,1,7.55.63c4.66.64,9.35.85,14,1.49,3.06.42,6.08,1,9.13,1.42,3.54.46,7.12.66,10.68.79a62.89,62.89,0,0,0,23.55-3.15,73.32,73.32,0,0,0,12.65-6.26,60.17,60.17,0,0,0,6.09-4c1.6-1.22,3.17-2.49,4.73-3.75l-.88-.51a7.56,7.56,0,0,1-1.2,2.26c-.72,1.08-1.51,2.11-2.31,3.13-1.73,2.19-3.55,4.31-5.43,6.36a36,36,0,0,1-6.36,5.72A22.68,22.68,0,0,1,112.22,62c-1.89.39-3.75.93-5.63,1.37a56.69,56.69,0,0,1-8,1.27c-4.15.36-8.31.29-12.47.34-2.43,0-4.86.11-7.29.19-4,.13-8-.33-12-.56C61,64.3,55.13,64,49.29,63.85c-8.56-.21-17.12.2-25.67.56-4.61.2-9.22.39-13.84.49-4.21.1-8.45.22-12.66,0-3.71-.19-7.71-.65-11-2.55-3.53-2-6.09-5.54-8.42-8.8a103.4,103.4,0,0,0-17-18.88c-1.55-1.31-3.14-2.55-4.77-3.75-.24-.18-.56.23-.32.41Z"/></g><g id="Layer_1" data-name="Layer 1"><path class="cls-3" d="M126.5,51.5c-4,3-6,6-11,7s-12,3-19,3-17,1.36-26.5,1c-10.23-.38-19.5-4-27.5-4s-11-1-17,0S4,62.5,0,62.5A37.91,37.91,0,0,1-9,61c-6.84-2.37-6.24-5.3-9-12s-2.55-11.74-6-18c-1.49-2.7-7.34-3.89-10.24-2.85l-.24.19c-4.66,4.63-13.65,7.91-18.8,6.24a43.73,43.73,0,0,1-11.07-6,11,11,0,0,1-2.18-2.05,18.58,18.58,0,0,1-3-4.77c-.39-1.41,3.44-6.87,5.27-8.87,2.45-2.68,3.06-4.17,6.18-6C-53.33,4-48.2,1.54-42.71,1.5A46.22,46.22,0,0,1-32.25,3.36c9.52,3,15.54,9.51,19.22,18.79,2.29,5.77,2.52,12.15,2.33,18.36-.08,2.71.27,7.07.29,8.12a10.68,10.68,0,0,0,1,4,13,13,0,0,0,3.86,3.6c1.69.85,3.26,0,5.54-.7,4.72-1.42,9.7-1.87,14.5-3h0l12-2h18l11,2s5,1.12,14.5,3c5.29,1,6.5,1,17.5,0s8.68-.7,15-1c9-.42,8-1,12-2a30,30,0,0,0,10-4c3-2,10.93-6.3,14-9C138.5,39.5,130.5,48.5,126.5,51.5Z"/><path class="cls-2" d="M126.25,51.07c-2,1.48-3.7,3.25-5.7,4.67a17,17,0,0,1-6.65,2.59c-5.62,1.21-11.22,2.6-17,2.67-11.47.14-22.92,2.07-34.35.22-5.35-.87-10.61-2.32-16-3C44,58,41.41,58,38.82,57.93c-2.15-.08-4.3-.27-6.45-.34a50.33,50.33,0,0,0-10.81,1.09c-4,.72-8,1.45-12.09,2.12A64.25,64.25,0,0,1,.11,62a29.55,29.55,0,0,1-7.24-1,17.83,17.83,0,0,1-4.13-1.47,8,8,0,0,1-3.34-3.14,28.14,28.14,0,0,1-1.82-4.61c-.84-2.38-1.85-4.68-2.56-7.11s-1.27-5.23-2.05-7.8c-.67-2.2-1.48-4.9-2.95-6.7a8.49,8.49,0,0,0-4.6-2.49,10.86,10.86,0,0,0-5.4-.11,4.57,4.57,0,0,0-1.76,1.27A22.48,22.48,0,0,1-38.85,31c-3.71,2.21-8.56,4-12.95,3.38a21.44,21.44,0,0,1-7-2.86,52.08,52.08,0,0,1-4.89-3.14,15.81,15.81,0,0,1-4-4.33A6.59,6.59,0,0,1-69,21.58a3.68,3.68,0,0,1,.6-1.83c1.78-3.54,4.48-6.53,7-9.5a20.32,20.32,0,0,1,6-4.37,33.51,33.51,0,0,1,8.15-3.3c4.62-1.11,9.29-.27,13.8.95A28.27,28.27,0,0,1-21.61,10a32.57,32.57,0,0,1,7.55,11c2.41,5.53,3,11.47,2.91,17.44,0,2.46,0,4.89.09,7.35a26.49,26.49,0,0,0,.48,5,8.53,8.53,0,0,0,3,4.54,5.19,5.19,0,0,0,5.32,1.41c3-.84,5.81-1.69,8.84-2.24C9.28,54,12,53.49,14.65,53c2.26-.43,4.53-.76,6.8-1.13l4-.67c.35-.06.71-.14,1.06-.18s-.16,0,.18,0H42.21c.73,0,1.46,0,2.18,0,.25,0-.18,0,.15,0s.81.15,1.22.22l8.36,1.52c5.58,1,11.11,2.37,16.69,3.42a33.47,33.47,0,0,0,7.93.53c4.73-.23,9.45-.78,14.18-1.18,2.22-.19,4.43-.32,6.65-.4a65.79,65.79,0,0,0,10.4-.81,22.74,22.74,0,0,0,2.65-.75c1.73-.56,3.51-.93,5.24-1.47a26.3,26.3,0,0,0,6.62-3c1.5-1,3-1.89,4.55-2.8,3.34-2,6.87-3.9,9.82-6.46l-.7-.7q-2.18,2.43-4.42,4.78a65.52,65.52,0,0,1-7.48,7.14c-.51.38,0,1.25.5.86a65.63,65.63,0,0,0,7.52-7.11c1.55-1.63,3.09-3.28,4.58-5a.5.5,0,0,0-.7-.7c-3.15,2.72-7,4.72-10.55,6.85-1.67,1-3.29,2.13-5,3.07a31.47,31.47,0,0,1-7.18,2.67,58,58,0,0,1-6.85,1.79c-3.39.47-6.84.51-10.26.64-7.25.26-14.46,1.58-21.71,1.6a48.77,48.77,0,0,1-9.53-1.36c-3.57-.72-7.14-1.45-10.7-2.23-1.44-.31-2.9-.55-4.35-.82-2.43-.44-4.89-1-7.35-1.33a40.28,40.28,0,0,0-4.79,0H30.56a35.08,35.08,0,0,0-4.35,0c-2.56.34-5.11.86-7.66,1.28-2.94.49-5.84,1.1-8.77,1.62S3.62,54,.62,54.8c-1.25.35-2.47.88-3.74,1.14a3.88,3.88,0,0,1-3.53-1.11,12,12,0,0,1-2.13-2.2,7.52,7.52,0,0,1-1-3.07A46.92,46.92,0,0,1-10.15,44c-.22-5.54.24-11-.83-16.52C-12.74,18.41-18.31,9.72-26.5,5.25A37.65,37.65,0,0,0-39.07,1.34a21.19,21.19,0,0,0-6.31-.13,28,28,0,0,0-8.07,2.56,32.48,32.48,0,0,0-6.77,4,40.64,40.64,0,0,0-4.47,4.89,37.62,37.62,0,0,0-3.22,4.3c-.8,1.24-2,2.85-2.1,4.38s1.38,3.23,2.22,4.38A16.37,16.37,0,0,0-64,29.36,54.71,54.71,0,0,0-59,32.58a22.15,22.15,0,0,0,6.92,2.8c4.2.66,8.71-.83,12.4-2.75a29.23,29.23,0,0,0,5.35-3.75c1.35-1.14,4.18-.6,5.73-.19a9.59,9.59,0,0,1,2.67,1.1,5.53,5.53,0,0,1,2,2.5,38.49,38.49,0,0,1,2.76,8A70.91,70.91,0,0,0-18.91,48c.77,2.07,1.54,4.12,2.3,6.19A12.86,12.86,0,0,0-14.68,58a10,10,0,0,0,4.07,2.88,21.83,21.83,0,0,0,3.94,1.2A28.68,28.68,0,0,0,.22,63a69.13,69.13,0,0,0,9.51-1.24c4.08-.67,8.14-1.41,12.21-2.13a49.41,49.41,0,0,1,11.18-1c2.25.11,4.48.28,6.73.34a67.17,67.17,0,0,1,8,.48c5.52.82,10.93,2.29,16.46,3.05a91.84,91.84,0,0,0,17.78.27c2.9-.17,5.81-.39,8.72-.56,2.55-.15,5.1-.12,7.65-.25,5.63-.28,11.08-1.71,16.58-2.85a15.64,15.64,0,0,0,6.23-2.66c1.9-1.4,3.58-3.08,5.46-4.51C127.26,51.55,126.76,50.68,126.25,51.07Z"/></g><g id="Layer_5" data-name="Layer 5"><path class="cls-2" d="M3.27,65.75A1.85,1.85,0,0,0,5,64.47a.5.5,0,0,0-1-.27l0,.13L4,64.21a1.61,1.61,0,0,1-.17.28l.08-.1a1.36,1.36,0,0,1-.24.24l.1-.08a1.22,1.22,0,0,1-.29.17l.12,0a1,1,0,0,1-.33.09l.13,0H3.27a.56.56,0,0,0-.35.15.5.5,0,0,0,0,.71.46.46,0,0,0,.35.14Z"/><path class="cls-2" d="M9.26,65.82c1.33-.18,2.09-1.43,2.66-2.51a.52.52,0,0,0-.18-.69.51.51,0,0,0-.69.18c-.13.26-.27.52-.42.77s-.15.25-.24.36l-.06.09c0-.06,0,0,0,0l-.15.17a2.23,2.23,0,0,1-.27.26s-.11.1,0,0l-.08.06-.16.1-.18.09,0,0c.07,0,0,0,0,0a2.74,2.74,0,0,1-.39.09.5.5,0,0,0-.3.23.49.49,0,0,0,0,.39.5.5,0,0,0,.23.3.61.61,0,0,0,.38,0Z"/><path class="cls-2" d="M14.36,65.67a8.67,8.67,0,0,0,4.9-3.08.52.52,0,0,0,0-.7.5.5,0,0,0-.71,0A7.76,7.76,0,0,1,14.1,64.7c-.63.14-.37,1.11.26,1Z"/><path class="cls-2" d="M24.06,65.45a1.51,1.51,0,0,0,1.34-.59,11,11,0,0,0,.94-1.11,12.19,12.19,0,0,0,1.44-2.37.5.5,0,1,0-.86-.5A12.41,12.41,0,0,1,25.68,63a9.77,9.77,0,0,1-.72.87,5.89,5.89,0,0,1-.42.45l-.16.13s-.13,0-.05,0a.52.52,0,0,0-.62.35.5.5,0,0,0,.35.61Z"/><path class="cls-2" d="M31.79,64.93a6.05,6.05,0,0,0,3.08-3.81.5.5,0,1,0-1-.27,5,5,0,0,1-.17.55,1.12,1.12,0,0,0,0,.13c0,.09,0-.1,0,0a2.56,2.56,0,0,1-.11.24c-.09.17-.19.34-.29.5l-.15.22-.13.17a5.9,5.9,0,0,1-.79.79,4.07,4.07,0,0,1-.39.28l-.5.29a.5.5,0,0,0,.5.86Z"/><path class="cls-2" d="M40.52,64.31A5.89,5.89,0,0,0,43,61.11a.5.5,0,0,0-.35-.61.51.51,0,0,0-.62.35,3.52,3.52,0,0,1-.15.42c0,.09,0,0,0,0s0,.07,0,.1a1.24,1.24,0,0,1-.1.2,4.49,4.49,0,0,1-.47.75c0,.07.08-.09,0,0l-.06.08-.15.17c-.1.11-.21.22-.32.32l-.34.3s0,0,0,0l-.1.07-.2.14a.5.5,0,0,0,.5.86Z"/><path class="cls-2" d="M48.13,64.63a2.26,2.26,0,0,0,1.28-1,6.53,6.53,0,0,0,.85-1.41.51.51,0,0,0,.05-.38.5.5,0,0,0-.23-.3.5.5,0,0,0-.68.18A6.68,6.68,0,0,1,48.68,63c0,.06,0-.06,0,0a.35.35,0,0,1,0,.08l-.12.14-.24.26-.12.11,0,0c.06-.05,0,0,0,0l-.08.05h0s0,0,.05,0-.05,0-.07,0l-.1,0a.46.46,0,0,0-.3.23.5.5,0,0,0-.05.38.5.5,0,0,0,.23.3.58.58,0,0,0,.39,0Z"/><path class="cls-2" d="M55.48,64.49a4.8,4.8,0,0,0,1.15-1.91.51.51,0,0,0-.35-.62.51.51,0,0,0-.61.35c0,.08-.06.16-.08.23l0,.05s0,.09,0,0v0l0,.05a3.55,3.55,0,0,1-.23.43l-.26.39s.08-.1,0,0l0,0L55,63.6l-.18.19a.5.5,0,0,0,0,.7.51.51,0,0,0,.71,0Z"/><path class="cls-2" d="M59.92,65.08a2.73,2.73,0,0,0,1.3-1.87.59.59,0,0,0,0-.39.53.53,0,0,0-.3-.23.5.5,0,0,0-.38,0,.46.46,0,0,0-.23.3,2.23,2.23,0,0,1-.15.52l0-.12a2.18,2.18,0,0,1-.29.49l.08-.1a2.59,2.59,0,0,1-.4.41l.1-.08a2,2,0,0,1-.24.16.5.5,0,1,0,.51.86Z"/><path class="cls-2" d="M66.11,65.47A2.35,2.35,0,0,0,67.39,64a.49.49,0,0,0,0-.39.48.48,0,0,0-.3-.22.5.5,0,0,0-.61.34,1.18,1.18,0,0,1-.07.2l0-.12a1.52,1.52,0,0,1-.24.41l.08-.1a1.82,1.82,0,0,1-.34.34l.1-.08a1.52,1.52,0,0,1-.41.24.57.57,0,0,0-.23.3.59.59,0,0,0,0,.39.57.57,0,0,0,.3.23l.14,0a.72.72,0,0,0,.25-.07Z"/></g></svg>