<svg xmlns="http://www.w3.org/2000/svg" viewBox="0 0 70 70"><defs><style>.cls-1{fill:#f0d0a4;}.cls-2{fill:#2d2926;}.cls-3{fill:#e94b3c;}.cls-4{fill:#fff;}.cls-5{fill:#c1272d;}</style></defs><title>Artboard 3</title><g id="Layer_4" data-name="Layer 4"><path class="cls-1" d="M25.81,31.15a94.21,94.21,0,0,1,19.4,19.72c3,4.1,5.76,8.56,9.95,11.44,4.4,3,11.51,3.19,16.84,3.19,17.5,0,33-1.5,47.59-1.11,4.7.12,17.73.72,22.41,1.11,6.87.57,5.5,0,18.5,0s17-2,22-3,7.72-2,13-7c1.93-1.84,10.42-11.39,11-14-7.42,6-6.63,5.19-13,9-15.31,9.15-28.84,8.28-38.37,7.72-9.91-.59-11.25-2-22.63-2.72-6.33-.42-11.75-2.13-18-1-11.06,2-6.76-.84-18-1-3.64,0-21.48,2.09-25,3s-9.1,3.64-12-2S52,30.37,47.73,25.63a5.62,5.62,0,0,0-3.16-2.11,6.35,6.35,0,0,0-3.41.77c-2.76,1.19-8,3.74-15.66,6.78"/><path class="cls-2" d="M25.62,31.34A96.35,96.35,0,0,1,44.17,50.2c2.44,3.29,4.62,6.81,7.5,9.75a18.25,18.25,0,0,0,4.53,3.53,19.21,19.21,0,0,0,5,1.69A55,55,0,0,0,72.36,66c4.87,0,9.74-.12,14.61-.29,8.85-.31,17.71-.82,26.57-.86,6.45,0,12.89.3,19.33.62,2.83.15,5.67.29,8.51.51,1.89.14,3.79.31,5.69.3s3.75-.11,5.63-.16c3.91-.11,7.83,0,11.75-.16a67.54,67.54,0,0,0,9.83-1c2.09-.39,4.15-.94,6.21-1.45a50,50,0,0,0,7.61-2,26.42,26.42,0,0,0,8.05-5.86c1.68-1.68,3.23-3.48,4.76-5.28a63.12,63.12,0,0,0,5-6.5A7.55,7.55,0,0,0,207,41.64a.53.53,0,0,0-.88-.51,82.69,82.69,0,0,1-7.66,5.79,101.14,101.14,0,0,1-9.54,5.45A57.37,57.37,0,0,1,163.69,58a120.1,120.1,0,0,1-20.13-1.76c-3.9-.66-7.81-1-11.75-1.34-5-.4-9.93-1.64-15-1.25-3.36.26-6.83,1.51-10.21.86-.87-.17-1.71-.47-2.57-.7a23.33,23.33,0,0,0-4-.69c-5.73-.52-11.57.41-17.25,1.11-2.89.36-5.78.74-8.65,1.21-2.23.36-4.31,1.07-6.5,1.6a8.29,8.29,0,0,1-4.58.07,6,6,0,0,1-3.33-3.45,80.13,80.13,0,0,1-3-8.09c-1.16-3.4-2.29-6.82-3.54-10.18A49.69,49.69,0,0,0,49.44,27a11.34,11.34,0,0,0-2.71-3.18c-1.9-1.44-3.85-1-5.88-.1-2.91,1.26-5.77,2.62-8.68,3.88-2.26,1-4.54,1.94-6.83,2.85-.71.29-.4,1.45.32,1.16,4.09-1.63,8.12-3.36,12.13-5.18,1.2-.54,2.4-1.1,3.62-1.62s2.58-1.08,3.89-.47a6.74,6.74,0,0,1,2.23,1.89c1.75,2.14,2.8,5,3.8,7.5,1.31,3.34,2.45,6.74,3.6,10.13,1,3,2,5.93,3.15,8.82,1.11,2.71,2.62,5.3,5.8,5.73,2.81.38,5.41-.86,8.09-1.48,2.29-.52,4.66-.8,7-1.12,3.24-.44,6.5-.83,9.75-1.18,2.42-.25,4.85-.54,7.28-.6a28.41,28.41,0,0,1,8.61,1,15.57,15.57,0,0,0,6.69.45,66.75,66.75,0,0,1,7.2-.88,49,49,0,0,1,7.55.63c4.66.64,9.35.85,14,1.49,3.06.42,6.08,1,9.13,1.42,3.54.46,7.12.66,10.68.79a62.89,62.89,0,0,0,23.55-3.15,73.32,73.32,0,0,0,12.65-6.26,60.17,60.17,0,0,0,6.09-4c1.6-1.22,3.17-2.49,4.73-3.75l-.88-.51a7.56,7.56,0,0,1-1.2,2.26c-.72,1.08-1.51,2.11-2.31,3.13-1.73,2.19-3.55,4.31-5.43,6.36a36,36,0,0,1-6.36,5.72A22.68,22.68,0,0,1,182.22,62c-1.89.39-3.75.93-5.63,1.37a56.69,56.69,0,0,1-8,1.27c-4.15.36-8.31.29-12.47.34-2.43,0-4.86.11-7.29.19-4,.13-8-.33-12-.56-5.83-.33-11.67-.63-17.51-.78-8.56-.21-17.12.2-25.67.56-4.61.2-9.22.39-13.84.49-4.21.1-8.45.22-12.66,0-3.71-.19-7.71-.65-11-2.55-3.53-2-6.09-5.54-8.42-8.8a103.4,103.4,0,0,0-17-18.88c-1.55-1.31-3.14-2.55-4.77-3.75-.24-.18-.56.23-.32.41Z"/></g><g id="Layer_1" data-name="Layer 1"><path class="cls-3" d="M196.5,51.5c-4,3-6,6-11,7s-12,3-19,3-17,1.36-26.5,1c-10.23-.38-19.5-4-27.5-4s-11-1-17,0-21.5,4-25.5,4A37.91,37.91,0,0,1,61,61c-6.84-2.37-6.24-5.3-9-12s-2.55-11.74-6-18c-1.49-2.7-7.34-3.89-10.24-2.85l-.24.19c-4.66,4.63-13.65,7.91-18.8,6.24a43.73,43.73,0,0,1-11.07-6,11,11,0,0,1-2.18-2.05,18.58,18.58,0,0,1-3-4.77C.12,20.3,4,14.84,5.78,12.84c2.45-2.68,3.06-4.17,6.18-6C16.67,4,21.8,1.54,27.29,1.5A46.22,46.22,0,0,1,37.75,3.36c9.52,3,15.54,9.51,19.22,18.79,2.29,5.77,2.52,12.15,2.33,18.36-.08,2.71.27,7.07.29,8.12a10.68,10.68,0,0,0,1,4,13,13,0,0,0,3.86,3.6c1.69.85,3.26,0,5.54-.7,4.72-1.42,9.7-1.87,14.5-3h0l12-2h18l11,2s4.95,1.12,14.5,3c5.29,1,6.5,1,17.5,0s8.68-.7,15-1c9-.42,8-1,12-2a30,30,0,0,0,10-4c3-2,10.93-6.3,14-9C208.5,39.5,200.5,48.5,196.5,51.5Z"/><path class="cls-2" d="M196.25,51.07c-2,1.48-3.7,3.25-5.7,4.67a17,17,0,0,1-6.65,2.59c-5.62,1.21-11.22,2.6-17,2.67-11.47.14-22.92,2.07-34.35.22-5.35-.87-10.61-2.32-16-3-2.57-.3-5.14-.23-7.73-.33-2.15-.08-4.3-.27-6.45-.34a50.33,50.33,0,0,0-10.81,1.09c-4,.72-8,1.45-12.09,2.12A64.25,64.25,0,0,1,70.11,62a29.55,29.55,0,0,1-7.24-1,17.83,17.83,0,0,1-4.13-1.47,8,8,0,0,1-3.34-3.14,28.14,28.14,0,0,1-1.82-4.61c-.84-2.38-1.85-4.68-2.56-7.11s-1.27-5.23-2.05-7.8c-.67-2.2-1.48-4.9-2.95-6.7a8.49,8.49,0,0,0-4.6-2.49,10.86,10.86,0,0,0-5.4-.11,4.57,4.57,0,0,0-1.76,1.27A22.48,22.48,0,0,1,31.15,31c-3.71,2.21-8.56,4-12.95,3.38a21.44,21.44,0,0,1-7-2.86,52.08,52.08,0,0,1-4.89-3.14,15.81,15.81,0,0,1-4-4.33A6.59,6.59,0,0,1,1,21.58a3.68,3.68,0,0,1,.6-1.83c1.78-3.54,4.48-6.53,7.05-9.5a20.32,20.32,0,0,1,6-4.37,33.51,33.51,0,0,1,8.15-3.3c4.62-1.11,9.29-.27,13.8.95A28.27,28.27,0,0,1,48.39,10a32.57,32.57,0,0,1,7.55,11c2.41,5.53,3,11.47,2.91,17.44,0,2.46,0,4.89.09,7.35a26.49,26.49,0,0,0,.48,5,8.53,8.53,0,0,0,3,4.54,5.19,5.19,0,0,0,5.32,1.41c3-.84,5.81-1.69,8.84-2.24,2.69-.49,5.37-1,8.06-1.53,2.26-.43,4.53-.76,6.8-1.13l4-.67c.35-.06.71-.14,1.06-.18s-.16,0,.18,0h15.51c.73,0,1.46,0,2.18,0,.25,0-.18,0,.15,0s.81.15,1.22.22l8.36,1.52c5.58,1,11.11,2.37,16.69,3.42a33.47,33.47,0,0,0,7.93.53c4.73-.23,9.45-.78,14.18-1.18,2.22-.19,4.43-.32,6.65-.4a65.79,65.79,0,0,0,10.4-.81,22.74,22.74,0,0,0,2.65-.75c1.73-.56,3.51-.93,5.24-1.47a26.3,26.3,0,0,0,6.62-3c1.5-1,3-1.89,4.55-2.8,3.34-2,6.87-3.9,9.82-6.46l-.7-.7q-2.18,2.43-4.42,4.78a65.52,65.52,0,0,1-7.48,7.14c-.51.38,0,1.25.5.86a65.63,65.63,0,0,0,7.52-7.11c1.55-1.63,3.09-3.28,4.58-5a.5.5,0,0,0-.7-.7c-3.15,2.72-7,4.72-10.55,6.85-1.67,1-3.29,2.13-5,3.07a31.47,31.47,0,0,1-7.18,2.67,58,58,0,0,1-6.85,1.79c-3.39.47-6.84.51-10.26.64-7.25.26-14.46,1.58-21.71,1.6a48.77,48.77,0,0,1-9.53-1.36c-3.57-.72-7.14-1.45-10.7-2.23-1.44-.31-2.9-.55-4.35-.82-2.43-.44-4.89-1-7.35-1.33a40.28,40.28,0,0,0-4.79,0h-9.33a35.08,35.08,0,0,0-4.35,0c-2.56.34-5.11.86-7.66,1.28-2.94.49-5.84,1.1-8.77,1.62s-6.16,1-9.16,1.86c-1.25.35-2.47.88-3.74,1.14a3.88,3.88,0,0,1-3.53-1.11,12,12,0,0,1-2.13-2.2,7.52,7.52,0,0,1-1-3.07A46.92,46.92,0,0,1,59.85,44c-.22-5.54.24-11-.83-16.52C57.26,18.41,51.69,9.72,43.5,5.25A37.65,37.65,0,0,0,30.93,1.34a21.19,21.19,0,0,0-6.31-.13,28,28,0,0,0-8.07,2.56,32.48,32.48,0,0,0-6.77,4,40.64,40.64,0,0,0-4.47,4.89,37.62,37.62,0,0,0-3.22,4.3c-.8,1.24-2,2.85-2.1,4.38s1.38,3.23,2.22,4.38A16.37,16.37,0,0,0,6,29.36,54.71,54.71,0,0,0,11,32.58a22.15,22.15,0,0,0,6.92,2.8c4.2.66,8.71-.83,12.4-2.75a29.23,29.23,0,0,0,5.35-3.75c1.35-1.14,4.18-.6,5.73-.19a9.59,9.59,0,0,1,2.67,1.1,5.53,5.53,0,0,1,2,2.5,38.49,38.49,0,0,1,2.76,8A70.91,70.91,0,0,0,51.09,48c.77,2.07,1.54,4.12,2.3,6.19A12.86,12.86,0,0,0,55.32,58a10,10,0,0,0,4.07,2.88,21.83,21.83,0,0,0,3.94,1.2,28.68,28.68,0,0,0,6.89.89,69.13,69.13,0,0,0,9.51-1.24c4.08-.67,8.14-1.41,12.21-2.13a49.41,49.41,0,0,1,11.18-1c2.25.11,4.48.28,6.73.34a67.17,67.17,0,0,1,8,.48c5.52.82,10.93,2.29,16.46,3.05a91.84,91.84,0,0,0,17.78.27c2.9-.17,5.81-.39,8.72-.56,2.55-.15,5.1-.12,7.65-.25,5.63-.28,11.08-1.71,16.58-2.85a15.64,15.64,0,0,0,6.23-2.66c1.9-1.4,3.58-3.08,5.46-4.51C197.26,51.55,196.76,50.68,196.25,51.07Z"/><path d="M13.9,18.17l.84,1.13c.29.39.61.76.93,1.13a.33.33,0,0,0,.44,0A.33.33,0,0,0,16.2,20c-.29-.4-.56-.8-.87-1.17l-.9-1.09a.33.33,0,0,0-.44,0,.33.33,0,0,0-.09.43Z"/><path d="M19.36,20.49c.18-.11.38-.21.56-.33s.37-.26.56-.37l.57-.35c.18-.13.38-.25.57-.37a.5.5,0,0,0,.18-.67.51.51,0,0,0-.68-.18c-.2.11-.39.22-.59.35a4.78,4.78,0,0,0-.61.48c-.18.15-.34.3-.5.46a3.66,3.66,0,0,0-.46.58c-.17.24.16.54.4.4Z"/><path d="M11.52,25.91A5.66,5.66,0,0,0,14,27.49a12.72,12.72,0,0,0,3.38.91,6.35,6.35,0,0,0,2.34,0c.94-.21,1.86-.49,2.78-.78s1.83-.61,2.72-1a8.24,8.24,0,0,0,2.47-1.16c.3-.26,0-.64-.34-.59a11.27,11.27,0,0,0-2.45,1c-.79.32-1.58.62-2.38.9a11.48,11.48,0,0,1-4.84,1,13.69,13.69,0,0,1-3.1-.65,6.47,6.47,0,0,1-2.8-1.41c-.12-.14-.37.05-.26.2Z"/><path class="cls-4" d="M15.82,28.12A7.35,7.35,0,0,0,15.54,30a17.67,17.67,0,0,0,.74,5.74,3.37,3.37,0,0,1-1.11-1C14,32.93,13.42,29.14,13.25,27"/><path d="M15.61,28.07a10.91,10.91,0,0,0-.27,3.82,18.45,18.45,0,0,0,.7,3.9l.37-.28c-1.39-.8-1.91-2.64-2.27-4.09s-.5-3-.73-4.44c0-.19-.33-.15-.33,0a18.35,18.35,0,0,0,.23,2.22,25.5,25.5,0,0,0,.48,2.61c.37,1.5.93,3.28,2.37,4.09a.25.25,0,0,0,.36-.28,17.3,17.3,0,0,1-.71-3.77A10.52,10.52,0,0,1,16,28.18c.08-.27-.34-.38-.42-.11Z"/><path class="cls-4" d="M23.07,27.22a20.25,20.25,0,0,1-.36,3.55l-.48,2.91a3.49,3.49,0,0,0,1.36-1,5.78,5.78,0,0,0,1-2.19,20.35,20.35,0,0,0,.75-4.08"/><path d="M23,27.22A14.09,14.09,0,0,1,22.59,30c-.2,1.22-.41,2.44-.61,3.66,0,.17.11.39.31.31a3.92,3.92,0,0,0,1.59-1.11,5.63,5.63,0,0,0,.92-1.87,18.78,18.78,0,0,0,.89-4.51c0-.44-.62-.42-.67,0a24.74,24.74,0,0,1-.72,4,4.11,4.11,0,0,1-2.14,3l.31.32c.22-1.26.45-2.52.62-3.79a9.89,9.89,0,0,0,.1-2.77c0-.14-.25-.11-.24,0Z"/><path d="M27.19,23.93a.54.54,0,0,0-.11.18.94.94,0,0,0,0,.16,1.19,1.19,0,0,0,0,.42,1.4,1.4,0,0,0,.36.69,1.56,1.56,0,0,0,.75.42l.43.07H29a.28.28,0,0,0,.28-.25.29.29,0,0,0-.2-.32l-.4-.06H28.6c.08,0,0,0,0,0l-.17,0-.33-.1s-.08,0,0,0l-.07,0L27.82,25h0l0,0-.07-.06,0-.05c-.06-.06,0,0,0,0a1,1,0,0,1-.08-.14.25.25,0,0,1,0-.07s0,0,0,0,0-.1,0-.14v-.05h0a.17.17,0,0,0,0-.07h0a.76.76,0,0,0,0-.15c0-.05,0-.1,0-.16a.15.15,0,0,0-.27-.07Z"/><path class="cls-5" d="M18.61,28.45l0,.26c.11,1.13.22,2.26.24,3.39a11.11,11.11,0,0,1-.39,3.54,5.08,5.08,0,0,1-1.63,2.56,3.14,3.14,0,0,1-2.91.59,3.2,3.2,0,0,0,1.41,1A1.8,1.8,0,0,0,17,39.55a2.73,2.73,0,0,1,.47,2,14.62,14.62,0,0,0,1.26-3c.49-1.25,1.21-2.4,1.59-3.68a17,17,0,0,0,.33-6.67"/><path d="M18.37,28.45A23.33,23.33,0,0,1,18.16,35c-.43,1.83-1.9,4-4.08,3.35a.49.49,0,0,0-.47.82,2.8,2.8,0,0,0,3.66.82l-.64-.17a2.76,2.76,0,0,1,.43,1.72c0,.47.62.57.84.23a19.74,19.74,0,0,0,1.25-3.29,29.71,29.71,0,0,0,1.52-3.59,16.44,16.44,0,0,0,.4-3.29,12.42,12.42,0,0,0-.27-3.49c0-.13-.23-.1-.23,0A17.34,17.34,0,0,1,20,34.8c-.4,1.14-1,2.2-1.47,3.32-.21.5-.38,1-.56,1.52a7.12,7.12,0,0,1-.86,1.64l.84.23a3,3,0,0,0-.59-2.29.47.47,0,0,0-.67,0c-.85.68-1.86-.13-2.4-.78l-.48.82c2.33.73,4.28-1.07,5-3.12.9-2.5.36-5.21,0-7.75,0-.28-.5-.21-.48.06Z"/></g><g id="Layer_2" data-name="Layer 2"><path class="cls-4" d="M23.86,12.15,31.24,5s4.1,5.18,3.79,8.38a5.46,5.46,0,0,1-.56,2.1,4.7,4.7,0,0,1-3.88,2.39,6,6,0,0,1-4.34-1.66,8.6,8.6,0,0,1-2.36-4.07"/><path d="M24.06,12.36c2.59-2.25,5.08-4.63,7.54-7h-.72s0-.08,0,0a4.61,4.61,0,0,0,.28.38c.31.42.6.84.88,1.28a18.63,18.63,0,0,1,2,3.86,5.08,5.08,0,0,1-.33,4.67A4.45,4.45,0,0,1,28.59,17a7.24,7.24,0,0,1-4.18-5,.53.53,0,0,0-1,.28,8.45,8.45,0,0,0,3.88,5.33,5.83,5.83,0,0,0,6.09-.11,5.45,5.45,0,0,0,2.17-5.27,13.49,13.49,0,0,0-2-4.75A27.46,27.46,0,0,0,31.6,4.64a.52.52,0,0,0-.72,0C28.43,7,26,9.44,23.65,12a.29.29,0,0,0,.41.41Z"/><path class="cls-4" d="M16.43,12.31c-.77,2-3.48,4-5.64,3.71a5,5,0,0,1-4.08-4.48C6.58,9.38,7.9,7.41,9.36,5.81a.76.76,0,0,1,.54-.32.73.73,0,0,1,.42.23,52,52,0,0,1,6.23,6.45"/><path d="M16.24,12.2a6.4,6.4,0,0,1-3.68,3.28A4,4,0,0,1,8.15,14.1,4.67,4.67,0,0,1,7.58,9,10.39,10.39,0,0,1,9.18,6.6a3.72,3.72,0,0,1,.46-.51c.25-.2.4-.09.62.1l1.19,1.1a49.93,49.93,0,0,1,4.75,5.22c.39.49,1.09-.2.69-.68a56.08,56.08,0,0,0-5.28-5.51,6.39,6.39,0,0,0-1.36-1.13,1,1,0,0,0-1.17.34,11.36,11.36,0,0,0-2,2.74,5.6,5.6,0,0,0,.1,5.8A5,5,0,0,0,12,16.33a6.31,6.31,0,0,0,4.67-4c.08-.24-.3-.4-.4-.17Z"/><path class="cls-4" d="M26.62,12.31a.46.46,0,0,1,.73-.28.54.54,0,0,1-.1.87c-.31.15-.64-.24-.63-.59.13.17.28.44.37.25s.3-.41.25-.62c-.23,0-.6.13-.62.37"/><path d="M26.74,12.34h0v0l-.15.06a.3.3,0,0,0,.26-.05l.05,0,0,0,.1-.05-.07,0a.2.2,0,0,1,.11,0h-.08l.16,0H27l.12,0-.08,0,.1.07-.06-.06a.46.46,0,0,0,.07.07l-.06-.07a.3.3,0,0,1,.06.11l0-.08a.65.65,0,0,1,0,.13v0a.83.83,0,0,1,0,.15l0-.08a.75.75,0,0,1-.07.12l.05-.07a.27.27,0,0,1-.07.08l.07,0-.1,0,.08,0-.08,0h.08l-.09,0,.09,0L27,12.55l.07,0L27,12.49l.05.07a1.09,1.09,0,0,1-.08-.15l0,.08a1.21,1.21,0,0,1-.05-.18v0l-.63.17a2.78,2.78,0,0,0,.26.34.53.53,0,0,0,.32.15.41.41,0,0,0,.33-.18.88.88,0,0,0,.12-.19l.1-.17a.76.76,0,0,0,.11-.59.31.31,0,0,0-.12-.18.4.4,0,0,0-.21-.07,1,1,0,0,0-.29,0,1.48,1.48,0,0,0-.29.12.68.68,0,0,0-.38.58.34.34,0,0,0,.29.34.33.33,0,0,0,.22,0A.34.34,0,0,0,27,12.4a.14.14,0,0,1,0-.06l0,.08.05-.09-.05.08a.3.3,0,0,1,.08-.08l-.07.05a.51.51,0,0,1,.16-.09l-.09,0,.19-.05h0L26.91,12V12a.37.37,0,0,1,0,.14l0-.09-.12.22-.06.11a.47.47,0,0,1-.06.09l.06-.07,0,0,.07-.06,0,0,.08,0h0l.09,0h0l.09,0h0l.08,0,0,0,.07,0s-.06-.06-.09-.09l.05.07-.14-.19a.36.36,0,0,0-.16-.14.34.34,0,0,0-.22,0,.34.34,0,0,0-.25.33,1,1,0,0,0,.42.83.73.73,0,0,0,.43.13.74.74,0,0,0,.47-.2.89.89,0,0,0,.26-.72.84.84,0,0,0-.14-.4.76.76,0,0,0-.41-.31.59.59,0,0,0-.23,0,.63.63,0,0,0-.3.07.67.67,0,0,0-.31.31.28.28,0,0,0,0,.33l0,0,0-.13s0,.07,0,.1a.13.13,0,0,0,.11.12.12.12,0,0,0,.14-.09Z"/><path class="cls-4" d="M13.54,12.22a.38.38,0,0,0-.43.5.45.45,0,0,0,.69.12.47.47,0,0,0-.05-.6.34.34,0,0,0-.54.13c-.06.22.23.44.4.3s-.06-.49-.24-.36"/><path d="M13.66,11.79a.76.76,0,0,0-.78.22.91.91,0,0,0-.21.37.75.75,0,0,0,0,.42.72.72,0,0,0,.22.35,1,1,0,0,0,.34.19l.2,0h.1a.89.89,0,0,0,.39-.12.88.88,0,0,0,.15-.12.74.74,0,0,0,.14-.28.9.9,0,0,0,0-.43v.09a.79.79,0,0,0-.05-.22.72.72,0,0,0-.56-.47.75.75,0,0,0-.44.08l0,0A.48.48,0,0,0,13,12a.58.58,0,0,0-.14.24.55.55,0,0,0,.06.48.74.74,0,0,0,.38.29.55.55,0,0,0,.52-.13.52.52,0,0,0,.14-.22.62.62,0,0,0,0-.27l0-.09-.05-.09a.72.72,0,0,0-.19-.2.57.57,0,0,0-.25-.08l-.14,0a.38.38,0,0,0-.13.06.4.4,0,0,0-.15.19.39.39,0,0,0,0,.26.37.37,0,0,0,.2.15.32.32,0,0,0,.25,0h0l-.07,0h-.06l-.08,0,0,0-.07,0,0,0,0-.06a.16.16,0,0,1,0,.07l0-.08s0,0,0,.06v-.08l0-.08s0,0,0,0l.05-.07,0,0,.07,0,0,0,.08,0h0l.08,0-.07,0,.07.05-.06-.06.05.07,0-.06,0,.08s0,0,0-.07l0,.09a.06.06,0,0,1,0-.06l0,.1a.64.64,0,0,1,0-.07l0,.09,0-.06-.06.07.06,0-.07,0,.07,0-.08,0a.29.29,0,0,1,.1,0h-.08l.08,0-.08,0,.07,0-.07,0,.06,0-.06-.07a.41.41,0,0,1,0,.09l0-.09,0,.12,0-.09a.11.11,0,0,1,0,.08l0-.1a.74.74,0,0,1,0,.14l0-.09-.06.1.06-.08,0,0,.08-.06-.08.05.1,0a.7.7,0,0,1-.14,0h.09a.31.31,0,0,1-.13,0l.11,0-.1-.05.09.06-.07-.06.07.08a.16.16,0,0,1,0-.07l0,.1a.19.19,0,0,1,0-.08v.15a.3.3,0,0,1,0-.1l0,.11a.21.21,0,0,1,.06-.1l-.07.09a.3.3,0,0,1,.08-.08l-.1.07.08,0-.1,0,.07,0h-.1a.53.53,0,0,0,.35,0,.47.47,0,0,0,.2-.28.45.45,0,0,0,0-.34.46.46,0,0,0-.27-.21Z"/></g><g id="Layer_3" data-name="Layer 3"><path d="M22.72,8.12c.14.83.39,1.65.56,2.48a.26.26,0,0,0,.42.11c.88-1.06,1.75-2.14,2.61-3.22a35.38,35.38,0,0,0,2.5-3.24.31.31,0,0,0-.48-.37A33,33,0,0,0,25.79,7.1c-.83,1.09-1.66,2.19-2.48,3.3l.46.06c-.22-.81-.38-1.65-.63-2.45a.22.22,0,0,0-.42.11Z"/><path d="M17.9,8.18c-.25.81-.41,1.65-.63,2.46l.46-.06c-.82-1.11-1.65-2.21-2.48-3.31a34.22,34.22,0,0,0-2.54-3.22.31.31,0,0,0-.48.38,35.38,35.38,0,0,0,2.5,3.24c.87,1.08,1.73,2.15,2.61,3.21a.25.25,0,0,0,.42-.11c.17-.82.42-1.64.56-2.47a.22.22,0,0,0-.42-.12Z"/></g><g id="Layer_5" data-name="Layer 5"><path class="cls-2" d="M36.09,39.59a18.68,18.68,0,0,0,2-.94,6.55,6.55,0,0,0,1.8-1.28,7.51,7.51,0,0,0,1.55-3.61c.14-.62-.82-.89-1-.26a6.71,6.71,0,0,1-1.28,3.17,5.84,5.84,0,0,1-1.56,1.09,14,14,0,0,1-1.84.86.53.53,0,0,0-.35.62.51.51,0,0,0,.62.35Z"/><path class="cls-2" d="M41,44.56a7.9,7.9,0,0,0,4.09-4.67.5.5,0,0,0-1-.27,6.87,6.87,0,0,1-3.63,4.08.5.5,0,0,0-.18.68.51.51,0,0,0,.69.18Z"/><path class="cls-2" d="M44.94,49.68a12,12,0,0,0,3.69-5.1.52.52,0,0,0-.35-.62.53.53,0,0,0-.62.35A10.92,10.92,0,0,1,44.24,49a.5.5,0,0,0,.7.71Z"/><path class="cls-2" d="M49.55,55.71a15.16,15.16,0,0,0,1.92-3.51.5.5,0,0,0-.35-.61.51.51,0,0,0-.62.35,14.37,14.37,0,0,1-1.81,3.27.49.49,0,0,0,.18.68.5.5,0,0,0,.68-.18Z"/><path class="cls-2" d="M52.51,59.89A6.89,6.89,0,0,0,53.74,58a.56.56,0,0,0,0-.38.47.47,0,0,0-.23-.3.53.53,0,0,0-.39-.05.44.44,0,0,0-.29.23,6.84,6.84,0,0,1-.5.92,2.43,2.43,0,0,1-.14.2.44.44,0,0,1-.08.11l0,0h0l0,0,0,.05L52,59l-.18.2a.51.51,0,0,0,0,.71.5.5,0,0,0,.71,0Z"/><path class="cls-2" d="M56.17,62.77a5.79,5.79,0,0,0,1.24-1.18.31.31,0,0,0,.11-.16.41.41,0,0,0,0-.19.51.51,0,0,0-.5-.5.49.49,0,0,0-.35.15,5.86,5.86,0,0,1-1,1l.1-.08-.14.11a.53.53,0,0,0-.23.3.5.5,0,0,0,.05.38.5.5,0,0,0,.3.23.46.46,0,0,0,.38,0Z"/><path class="cls-2" d="M61.57,64.42a2.1,2.1,0,0,0,.49-.62,2.36,2.36,0,0,0,.25-.87.53.53,0,0,0-.15-.35.48.48,0,0,0-.7,0l-.08.1a.45.45,0,0,0-.07.25V63l0-.13a1.73,1.73,0,0,1-.12.43l0-.12a1.57,1.57,0,0,1-.22.38l.08-.1a2.06,2.06,0,0,1-.25.26.53.53,0,0,0-.15.36.51.51,0,0,0,.15.35.53.53,0,0,0,.35.15.61.61,0,0,0,.36-.15Z"/><path class="cls-2" d="M67.21,65.56a2.08,2.08,0,0,0,1.44-1.45.56.56,0,0,0-.05-.38.5.5,0,0,0-.3-.23.53.53,0,0,0-.39,0,.58.58,0,0,0-.23.3,1.39,1.39,0,0,1-.06.19l0-.11a1.68,1.68,0,0,1-.2.34l.08-.1a1.64,1.64,0,0,1-.3.29l.1-.07a2.33,2.33,0,0,1-.34.2l.12,0-.19.06a.52.52,0,0,0-.3.23.55.55,0,0,0,0,.38.51.51,0,0,0,.62.35Z"/></g></svg>