<svg xmlns="http://www.w3.org/2000/svg" viewBox="0 0 70 70"><defs><style>.cls-1{fill:#f0d0a4;}.cls-2{fill:#2d2926;}.cls-3{fill:#e94b3c;}.cls-4{fill:#fff;}.cls-5{fill:#c1272d;}</style></defs><title>Artboard 1</title><g id="Layer_4" data-name="Layer 4"><path class="cls-1" d="M44.19,31.15a94.21,94.21,0,0,0-19.4,19.72c-3,4.1-5.76,8.56-9.95,11.44C10.44,65.33,3.33,65.5-2,65.5c-17.5,0-33-1.5-47.59-1.11-4.7.12-17.73.72-22.41,1.11-6.87.57-5.5,0-18.5,0s-17-2-22-3-7.72-2-13-7c-1.93-1.84-10.42-11.39-11-14,7.42,6,6.63,5.19,13,9,15.31,9.15,28.84,8.28,38.37,7.72,9.91-.59,11.25-2,22.63-2.72,6.33-.42,11.75-2.13,18-1,11.06,2,6.76-.84,18-1,3.64,0,21.48,2.09,25,3s9.1,3.64,12-2,7.55-24.13,11.77-28.87a5.62,5.62,0,0,1,3.16-2.11,6.35,6.35,0,0,1,3.41.77c2.76,1.19,8,3.74,15.66,6.78"/><path class="cls-2" d="M44.06,30.93A92.74,92.74,0,0,0,25.8,48.78c-2.53,3.27-4.71,6.83-7.52,9.86a19.26,19.26,0,0,1-4.52,3.78,17.74,17.74,0,0,1-5.34,1.85A56.41,56.41,0,0,1-2.9,65c-4.69,0-9.38-.14-14.07-.32-8.75-.32-17.5-.83-26.26-.88-6.39,0-12.77.27-19.15.59-2.85.15-5.7.29-8.54.5-1.9.14-3.8.32-5.71.34-1.72,0-3.44-.09-5.16-.14C-85.48,65-89.18,65-92.88,65a70.81,70.81,0,0,1-10.38-.88c-2.14-.37-4.24-.9-6.34-1.43-2.4-.61-4.88-1-7.21-1.8A24,24,0,0,1-125.24,55c-1.6-1.56-3.06-3.26-4.51-4.95a67.77,67.77,0,0,1-5.13-6.57A7.34,7.34,0,0,1-136,41.36l-.88.51a87,87,0,0,0,7.69,5.85,106.35,106.35,0,0,0,9.25,5.36,57.76,57.76,0,0,0,25.06,6A109.46,109.46,0,0,0-74.5,57.51c3.75-.63,7.5-1.12,11.29-1.39,5-.36,10-1.56,15.05-1.42,3.69.1,7.37,1.45,11.08,1,2.09-.26,4-1.11,6.15-1.37,5.74-.7,11.6.23,17.3.92,3,.36,6,.75,9,1.23,2.24.36,4.33,1,6.53,1.59,3,.75,6.22.68,8.27-2C11.81,54,12.61,51,13.49,48.53c2.25-6.44,4.09-13.16,7.16-19.27a16.29,16.29,0,0,1,1.86-3,6.8,6.8,0,0,1,2.19-1.84c1.33-.62,2.71-.05,3.95.49,3,1.3,6,2.7,9,4,2.24,1,4.48,1.88,6.74,2.78.72.29,1-.87.32-1.16-4.08-1.63-8.11-3.39-12.12-5.2-1.22-.56-2.45-1.13-3.69-1.66-2.06-.87-4-1.09-5.8.41C20.91,25.8,19.68,28.47,18.6,31c-1.38,3.18-2.53,6.46-3.65,9.74s-2.14,6.41-3.31,9.59c-.93,2.53-1.92,5.92-4.78,6.83s-5.68-.56-8.36-1.21c-2.21-.53-4.51-.8-6.76-1.11C-14,54-19.8,53.18-25.58,53a28.42,28.42,0,0,0-8.62.87c-.85.23-1.68.53-2.55.69a13.22,13.22,0,0,1-3.61,0c-2.28-.22-4.52-.78-6.82-.93a37.46,37.46,0,0,0-7.25.36c-2.46.31-4.91.71-7.38.91s-4.65.35-7,.63c-3.12.38-6.2,1-9.3,1.45-3.55.51-7.13.73-10.71.9-8,.37-15.87-.21-23.46-2.75a69.34,69.34,0,0,1-13.1-6.32,59.94,59.94,0,0,1-6-3.9c-1.6-1.23-3.17-2.5-4.74-3.76a.53.53,0,0,0-.88.51,7.87,7.87,0,0,0,1.13,2.24c.7,1.08,1.48,2.11,2.27,3.12,1.75,2.25,3.61,4.43,5.53,6.54a42.16,42.16,0,0,0,6,5.61,21.14,21.14,0,0,0,8.34,3.64c4.63,1,9.17,2.3,13.9,2.8,6.8.72,13.67.4,20.49.64,4,.14,7.91-.28,11.87-.51,6-.35,11.9-.65,17.86-.81,8.66-.23,17.32.2,26,.55,4.73.19,9.46.37,14.19.46,4.23.09,8.5.2,12.73-.06,3.63-.22,7.48-.72,10.72-2.5,3.44-1.87,6-5.12,8.28-8.23,2.56-3.52,5-7.08,7.89-10.38a96.25,96.25,0,0,1,9.21-9.3c1.61-1.42,3.28-2.79,5-4.11.24-.18-.08-.59-.32-.41Z"/></g><g id="Layer_1" data-name="Layer 1"><path class="cls-3" d="M-126.5,51.5c4,3,6,6,11,7s12,3,19,3,17,1.36,26.5,1c10.23-.38,19.5-4,27.5-4s11-1,17,0,21.5,4,25.5,4A37.91,37.91,0,0,0,9,61c6.84-2.37,6.24-5.3,9-12s2.55-11.74,6-18c1.49-2.7,7.34-3.89,10.24-2.85l.24.19c4.66,4.63,13.65,7.91,18.8,6.24a43.73,43.73,0,0,0,11.07-6,11,11,0,0,0,2.18-2.05,18.58,18.58,0,0,0,3-4.77c.39-1.41-3.44-6.87-5.27-8.87-2.45-2.68-3.06-4.17-6.18-6C53.33,4,48.2,1.54,42.71,1.5A46.22,46.22,0,0,0,32.25,3.36c-9.52,3-15.54,9.51-19.22,18.79-2.29,5.77-2.52,12.15-2.33,18.36.08,2.71-.27,7.07-.29,8.12a10.68,10.68,0,0,1-1,4,13,13,0,0,1-3.86,3.6c-1.69.85-3.26,0-5.54-.7-4.72-1.42-9.7-1.87-14.5-3h0l-12-2h-18l-11,2s-5,1.12-14.5,3c-5.29,1-6.5,1-17.5,0s-8.68-.7-15-1c-9-.42-8-1-12-2a30,30,0,0,1-10-4c-3-2-10.93-6.3-14-9C-138.5,39.5-130.5,48.5-126.5,51.5Z"/><path class="cls-2" d="M-126.75,51.93c2,1.49,3.69,3.25,5.7,4.68a16.07,16.07,0,0,0,6.28,2.55c5.53,1.17,11,2.57,16.69,2.81,2.64.11,5.29.11,7.94.27s5.61.38,8.42.54a89.74,89.74,0,0,0,17.95-.37c5.5-.79,10.88-2.28,16.39-3a80.52,80.52,0,0,1,8.22-.43c2.18-.08,4.36-.26,6.54-.34a50.32,50.32,0,0,1,11.14,1.11c4.09.73,8.17,1.47,12.27,2.14A60.85,60.85,0,0,0,0,63a30.9,30.9,0,0,0,7.16-1,20.12,20.12,0,0,0,3.93-1.3,9.58,9.58,0,0,0,3.78-2.91,14.94,14.94,0,0,0,1.89-4c.77-2.18,1.64-4.31,2.41-6.49.88-2.5,1.47-5.08,2.12-7.65a35.25,35.25,0,0,1,2.95-8.08c1-1.81,2.94-2.61,4.87-3a12.12,12.12,0,0,1,2.94-.28,3.59,3.59,0,0,1,2.67,1,24,24,0,0,0,5.49,3.66c3.68,1.81,8.2,3.24,12.32,2.38a24.64,24.64,0,0,0,7-3,54.11,54.11,0,0,0,4.71-3.05A16.24,16.24,0,0,0,68,25.36c.81-1.14,2.24-2.81,2-4.33a13.34,13.34,0,0,0-2.28-4.45,38.31,38.31,0,0,0-3.36-4.36A34.92,34.92,0,0,0,60,7.54a35.13,35.13,0,0,0-7.22-4.08,27.19,27.19,0,0,0-7.53-2.27,22.54,22.54,0,0,0-6.76.24A37,37,0,0,0,26,5.53a29,29,0,0,0-9.38,8.73,35.46,35.46,0,0,0-5.77,14c-.95,5.45-.47,10.9-.72,16.39A34.38,34.38,0,0,1,9.74,50a6.72,6.72,0,0,1-1.14,2.9,13.22,13.22,0,0,1-2.51,2.39c-2.29,1.67-5,0-7.46-.66-3-.78-6.11-1.24-9.18-1.8C-15.77,51.85-21,50.65-26.29,50a39.73,39.73,0,0,0-4.63,0h-9.34a33.61,33.61,0,0,0-4.49,0c-2.57.35-5.12.93-7.66,1.39-5.16.94-10.26,2.1-15.4,3.13A44.22,44.22,0,0,1-77,55.76c-4.55,0-9.1-.64-13.62-1-2.64-.23-5.27-.46-7.92-.56a95.15,95.15,0,0,1-10.26-.65,61.52,61.52,0,0,1-7-1.86,29.46,29.46,0,0,1-7.37-2.9c-1.58-.92-3.11-2-4.68-2.89-3.48-2.08-7.23-4-10.32-6.71a.5.5,0,0,0-.7.7c1.49,1.69,3,3.34,4.58,5a65.63,65.63,0,0,0,7.52,7.11c.51.39,1-.48.5-.86a65.52,65.52,0,0,1-7.48-7.14q-2.25-2.35-4.42-4.78l-.7.7c3.08,2.67,6.8,4.66,10.29,6.74,1.55.93,3.07,1.92,4.63,2.86a27.85,27.85,0,0,0,6.55,2.79c1.64.49,3.31.85,4.93,1.38a20.62,20.62,0,0,0,2.77.75,73.54,73.54,0,0,0,10.38.76c7,.25,14,1.29,21,1.59a32.71,32.71,0,0,0,7.77-.61c4.31-.82,8.6-1.71,12.88-2.63,4-.86,8.11-1.56,12.17-2.29.34-.06.67-.14,1-.19s-.17,0,.19,0h11.46c2.08,0,4.16-.06,6.23,0,.24,0-.17,0,.14,0s.76.13,1.14.19l4.29.71c2.13.36,4.28.67,6.41,1.07l8.81,1.67c1.41.27,2.8.56,4.19.91s2.77.92,4.19,1.28C4.82,57.41,6.4,56.47,8,55a8.19,8.19,0,0,0,2.69-4.71,32.75,32.75,0,0,0,.39-5.05c.12-2.46.07-4.89.06-7.35,0-6,.65-11.91,3.15-17.42A32.11,32.11,0,0,1,22,9.6,28.74,28.74,0,0,1,33.93,3.4c4.66-1.19,9.3-1.93,14-.64a35.16,35.16,0,0,1,7.93,3.39,19.45,19.45,0,0,1,5.74,4.4c2.53,3,5.31,6,7,9.58A2.57,2.57,0,0,1,69,21.76a9.59,9.59,0,0,1-1.59,2.77,15.55,15.55,0,0,1-3.83,4,49.68,49.68,0,0,1-5.36,3.37,18.51,18.51,0,0,1-7,2.61c-4.46.39-9.17-1.43-12.88-3.76a21.11,21.11,0,0,1-2.7-2,4.22,4.22,0,0,0-1.86-1.24,11.76,11.76,0,0,0-5.71.3,7.82,7.82,0,0,0-4.29,2.62,24.34,24.34,0,0,0-2.94,7.08c-.71,2.49-1.23,5-2,7.5s-1.78,4.81-2.62,7.24a22.23,22.23,0,0,1-1.85,4.45,8.26,8.26,0,0,1-3.59,3,19.66,19.66,0,0,1-4.16,1.36A28.06,28.06,0,0,1-.22,62,70.21,70.21,0,0,1-10,60.71c-4-.66-7.93-1.38-11.9-2.09a49.26,49.26,0,0,0-11-1c-2.21.1-4.42.27-6.63.34-2.58.08-5.13.06-7.69.39-5.42.72-10.71,2.17-16.1,3a87.13,87.13,0,0,1-18.05.48c-5.39-.3-10.75-.68-16.15-.82-5.79-.15-11.38-1.6-17-2.79a15.63,15.63,0,0,1-6.28-2.62c-1.9-1.41-3.58-3.08-5.47-4.51C-126.76,50.68-127.26,51.55-126.75,51.93Z"/><path d="M55.57,17.76l-.9,1.09c-.31.37-.58.77-.87,1.17a.34.34,0,0,0,.09.43.32.32,0,0,0,.44,0c.32-.37.64-.74.93-1.13l.84-1.13a.33.33,0,0,0-.09-.43.32.32,0,0,0-.44,0Z"/><path d="M51,20.09a4.81,4.81,0,0,0-.44-.57c-.17-.16-.34-.32-.52-.47a3.88,3.88,0,0,0-.6-.47q-.3-.2-.6-.36a.49.49,0,1,0-.5.85l.56.36c.19.13.39.24.58.36s.37.23.55.36.38.22.57.34a.32.32,0,0,0,.36,0,.3.3,0,0,0,0-.35Z"/><path d="M58.22,25.71a6.27,6.27,0,0,1-2.73,1.38,13.18,13.18,0,0,1-3.17.68,11.28,11.28,0,0,1-4.73-1c-.8-.28-1.59-.57-2.38-.89a12.32,12.32,0,0,0-2.56-1.05c-.31-.05-.64.33-.34.59a8.24,8.24,0,0,0,2.47,1.16q1.29.51,2.61.93c1,.3,1.92.59,2.89.81a6.57,6.57,0,0,0,2.34,0,13.17,13.17,0,0,0,3.31-.88,5.8,5.8,0,0,0,2.55-1.61c.11-.15-.14-.34-.26-.2Z"/><path class="cls-4" d="M54.18,28.12A7.35,7.35,0,0,1,54.46,30a17.67,17.67,0,0,1-.74,5.74,3.37,3.37,0,0,0,1.11-1c1.22-1.74,1.75-5.53,1.92-7.65"/><path d="M54,28.18a10.52,10.52,0,0,1,.22,3.71,17.3,17.3,0,0,1-.71,3.77.25.25,0,0,0,.36.28c1.44-.82,2-2.59,2.37-4.09.2-.84.35-1.69.47-2.55A19.36,19.36,0,0,0,56.92,27c0-.18-.31-.24-.33,0-.23,1.49-.36,3-.73,4.44s-.88,3.29-2.27,4.09l.37.28a18.45,18.45,0,0,0,.7-3.9,10.91,10.91,0,0,0-.27-3.82c-.08-.27-.5-.16-.42.11Z"/><path class="cls-4" d="M46.93,27.22a20.25,20.25,0,0,0,.36,3.55l.48,2.91a3.49,3.49,0,0,1-1.36-1,5.78,5.78,0,0,1-1-2.19,20.35,20.35,0,0,1-.75-4.08"/><path d="M46.81,27.19a9.89,9.89,0,0,0,.1,2.77c.17,1.27.4,2.53.62,3.79l.31-.32a4.11,4.11,0,0,1-2.14-3,24.74,24.74,0,0,1-.72-4c0-.42-.69-.44-.67,0a18.78,18.78,0,0,0,.89,4.51,5.46,5.46,0,0,0,.89,1.83,3.77,3.77,0,0,0,1.62,1.15c.2.08.34-.14.31-.31-.2-1.22-.41-2.44-.61-3.66a14.09,14.09,0,0,1-.36-2.73c0-.14-.22-.17-.24,0Z"/><path d="M42.54,24c0,.06,0,.11,0,.16a.76.76,0,0,0,0,.15s0,.06,0,.07,0,0,0,0v0a.83.83,0,0,1,0,.15s0,.07,0,0l0,.06-.09.15s0,0,0,0l0,.05-.06.05,0,0h0l-.15.09-.07,0c.06,0,0,0,0,0l-.33.1-.16,0h-.13l-.4.06a.29.29,0,0,0-.2.32.27.27,0,0,0,.28.25,2.89,2.89,0,0,0,.83-.07,1.56,1.56,0,0,0,.75-.42,1.4,1.4,0,0,0,.36-.69,1.19,1.19,0,0,0,0-.42.94.94,0,0,0,0-.16.54.54,0,0,0-.11-.18.15.15,0,0,0-.27.07Z"/><path class="cls-5" d="M51.39,28.45l0,.26c-.11,1.13-.22,2.26-.24,3.39a11.11,11.11,0,0,0,.39,3.54,5.08,5.08,0,0,0,1.63,2.56,3.14,3.14,0,0,0,2.91.59,3.2,3.2,0,0,1-1.41,1A1.8,1.8,0,0,1,53,39.55a2.73,2.73,0,0,0-.47,2,14.62,14.62,0,0,1-1.26-3c-.49-1.25-1.21-2.4-1.59-3.68a17,17,0,0,1-.33-6.67"/><path d="M51.15,28.39c-.36,2.54-.9,5.25,0,7.75.75,2,2.7,3.85,5,3.12l-.48-.82c-.54.65-1.55,1.46-2.4.78a.47.47,0,0,0-.67,0A3,3,0,0,0,52,41.51l.84-.23a6.94,6.94,0,0,1-.83-1.54c-.19-.53-.36-1.06-.57-1.58C51,37,50.4,36,50,34.8a17.34,17.34,0,0,1-.56-6.69c0-.13-.21-.16-.23,0a12.44,12.44,0,0,0-.27,3.39,16.1,16.1,0,0,0,.4,3.39,28.09,28.09,0,0,0,1.48,3.49,21,21,0,0,0,1.29,3.39c.22.34.89.24.84-.23a2.76,2.76,0,0,1,.43-1.72l-.64.17a2.8,2.8,0,0,0,3.66-.82.49.49,0,0,0-.47-.82C53.74,39,52.27,36.8,51.84,35a23.33,23.33,0,0,1-.21-6.52c0-.27-.44-.34-.48-.06Z"/></g><g id="Layer_2" data-name="Layer 2"><path class="cls-4" d="M46.14,12.15,38.76,5s-4.1,5.18-3.79,8.38a5.46,5.46,0,0,0,.56,2.1,4.7,4.7,0,0,0,3.88,2.39,6,6,0,0,0,4.34-1.66,8.6,8.6,0,0,0,2.36-4.07"/><path d="M46.35,12C44,9.44,41.57,7,39.12,4.64a.52.52,0,0,0-.72,0,19,19,0,0,0-3.8,7A5.62,5.62,0,0,0,36,17a5.65,5.65,0,0,0,6,.91,8.22,8.22,0,0,0,4.55-5.65.53.53,0,0,0-1-.28,7.61,7.61,0,0,1-3.41,4.67,4.67,4.67,0,0,1-5.44-.49c-2.59-2.45-.62-6.23.89-8.66.33-.53.68-1,1-1.56l.37-.5c.07-.1.12-.16.08-.1H38.4c2.46,2.37,5,4.75,7.54,7a.29.29,0,0,0,.41-.41Z"/><path class="cls-4" d="M53.57,12.31c.77,2,3.48,4,5.64,3.71a5,5,0,0,0,4.08-4.48c.13-2.16-1.19-4.13-2.65-5.73a.76.76,0,0,0-.54-.32.73.73,0,0,0-.42.23,52,52,0,0,0-6.23,6.45"/><path d="M53.36,12.37a6.4,6.4,0,0,0,4,3.79,4.76,4.76,0,0,0,5-1.54A5.39,5.39,0,0,0,63.22,9a11,11,0,0,0-1.74-2.8,3,3,0,0,0-1.07-1c-.53-.19-.93.22-1.3.54a53.53,53.53,0,0,0-6,6.14c-.4.48.3,1.17.69.68a48.94,48.94,0,0,1,4.14-4.62c.36-.36.73-.71,1.1-1.06l.56-.51.21-.2c.24-.16.32-.2.55,0A4.81,4.81,0,0,1,61.3,7.2a11,11,0,0,1,.77,1.15,5,5,0,0,1,.21,5.17,4.28,4.28,0,0,1-4.21,2.13,6.27,6.27,0,0,1-4.31-3.45c-.1-.23-.48-.07-.4.17Z"/><path class="cls-4" d="M43.38,12.31a.46.46,0,0,0-.73-.28.54.54,0,0,0,.1.87c.31.15.64-.24.63-.59-.13.17-.28.44-.37.25s-.3-.41-.25-.62c.23,0,.6.13.62.37"/><path d="M43.51,12.31s0-.07,0-.1l0,.13,0,0a.29.29,0,0,0,0-.33.69.69,0,0,0-.27-.29.68.68,0,0,0-.5-.07.75.75,0,0,0-.39.21.85.85,0,0,0-.21.37.91.91,0,0,0,.19.81.74.74,0,0,0,.36.24.72.72,0,0,0,.52-.07.87.87,0,0,0,.35-.36,1,1,0,0,0,.14-.51.34.34,0,0,0-.25-.33h-.18a.35.35,0,0,0-.2.16l-.14.19,0-.07s0,.07-.09.09l.07,0a.05.05,0,0,1,0,0l.08,0h0l.09,0h0l.09,0h0l.08,0,0,0,.07.06,0,0,.06.07a.26.26,0,0,1,0-.09l-.07-.11L43.09,12l0,.09a.37.37,0,0,1,0-.14V12l-.33.25h0l.19.05-.09,0a.51.51,0,0,1,.16.09L43,12.33a.3.3,0,0,1,.08.08l0-.08,0,.09,0-.08a.14.14,0,0,1,0,.06.34.34,0,0,0,.16.21.41.41,0,0,0,.22,0,.34.34,0,0,0,.29-.34.68.68,0,0,0-.38-.58.93.93,0,0,0-.58-.14.4.4,0,0,0-.21.07.31.31,0,0,0-.12.18.76.76,0,0,0,.11.59l.1.17a.88.88,0,0,0,.12.19.41.41,0,0,0,.33.18.48.48,0,0,0,.32-.15,2.78,2.78,0,0,0,.26-.34L43,12.31v0a1.21,1.21,0,0,1,0,.18l0-.08a1.09,1.09,0,0,1-.08.15l0-.07-.11.11.07,0-.11.06.09,0-.09,0h.08l-.08,0,.08,0-.1,0,.07,0a.27.27,0,0,1-.07-.08l.05.07a.75.75,0,0,1-.07-.12l0,.08a.83.83,0,0,1,0-.15v0a.65.65,0,0,1,0-.13l0,.08a.3.3,0,0,1,.06-.11l-.06.07a.46.46,0,0,0,.07-.07l-.06.06.1-.07-.08,0,.12,0H42.9l.16,0H43a.2.2,0,0,1,.11,0l-.07,0,.1.05s0,0,0,0,0,0,0,0a.24.24,0,0,0,.12.07.33.33,0,0,0,.17,0l-.15-.06v0h0a.12.12,0,0,0,.14.09.13.13,0,0,0,.11-.12Z"/><path class="cls-4" d="M56.46,12.22a.38.38,0,0,1,.43.5.45.45,0,0,1-.69.12.47.47,0,0,1,0-.6.34.34,0,0,1,.54.13c.06.22-.23.44-.4.3s.06-.49.24-.36"/><path d="M56.58,12.66h-.1l.07,0-.1,0,.08,0-.1-.07a.3.3,0,0,1,.08.08l-.07-.09a.21.21,0,0,1,.06.1l0-.11a.3.3,0,0,1,0,.1v-.15a.19.19,0,0,1,0,.08l0-.1a.16.16,0,0,1,0,.07l.07-.08-.07.06.09-.06-.1.05.11,0a.31.31,0,0,1-.13,0h.09a.7.7,0,0,1-.14,0l.1,0-.08-.05.08.06,0,0,.06.08-.06-.1,0,.09a.74.74,0,0,1,0-.14l0,.1a.11.11,0,0,1,0-.08l0,.09,0-.12,0,.09a.41.41,0,0,1,0-.09l-.06.07.06,0-.07,0,.07,0-.08,0,.08,0h-.08a.29.29,0,0,1,.1,0l-.08,0,.07,0-.07,0,.06,0-.06-.07,0,.06,0-.09a.64.64,0,0,1,0,.07l0-.1a.06.06,0,0,1,0,.06l0-.09s0,.05,0,.07l0-.08,0,.06,0-.07-.06.06.07-.05-.07,0,.08,0h0l.08,0,0,0,.07,0s0,0,0,0l0,.07s0,0,0,0l0,.08v.08s0,0,0-.06l0,.08a.16.16,0,0,1,0-.07l0,.06,0,0-.07,0,0,0-.08,0h-.06l-.07,0h0a.31.31,0,0,0,.25,0,.32.32,0,0,0,.23-.41A.4.4,0,0,0,56.8,12a.5.5,0,0,0-.5,0,.39.39,0,0,0-.1.08l0,0a.76.76,0,0,0-.13.23s0,0,0,.05a.32.32,0,0,0,0,.14.45.45,0,0,0,.07.25.47.47,0,0,0,.19.18l.13,0,.14,0a.67.67,0,0,0,.44-.2.62.62,0,0,0,.17-.45.65.65,0,0,0-.08-.27.76.76,0,0,0-.2-.2,1,1,0,0,0-.18-.09l-.21,0A.71.71,0,0,0,56,12l-.1.12a.25.25,0,0,0,0,.07.76.76,0,0,0-.06.16.9.9,0,0,0,0,.16v-.09a1.13,1.13,0,0,0,0,.41.61.61,0,0,0,.19.33.75.75,0,0,0,.35.19,1.34,1.34,0,0,0,.4,0l.09,0a.82.82,0,0,0,.19-.09.73.73,0,0,0,.27-.28.8.8,0,0,0,.07-.2.69.69,0,0,0,0-.32.19.19,0,0,0,0-.1.66.66,0,0,0-.09-.19,1,1,0,0,0-.33-.3.89.89,0,0,0-.32-.08.47.47,0,0,0-.23,0,.43.43,0,0,0-.27.21.45.45,0,0,0,0,.34.43.43,0,0,0,.55.32Z"/></g><g id="Layer_3" data-name="Layer 3"><path d="M46.86,8c-.25.8-.41,1.64-.63,2.45l.46-.06C45.87,9.29,45,8.19,44.21,7.1a33,33,0,0,0-2.54-3.22.31.31,0,0,0-.48.37,35.38,35.38,0,0,0,2.5,3.24c.86,1.08,1.73,2.16,2.61,3.22a.26.26,0,0,0,.42-.11c.17-.83.42-1.65.56-2.48A.22.22,0,0,0,46.86,8Z"/><path d="M51.68,8.3c.14.83.39,1.65.56,2.47a.25.25,0,0,0,.42.11c.88-1.06,1.74-2.13,2.61-3.21a35.38,35.38,0,0,0,2.5-3.24.31.31,0,0,0-.48-.38,34.22,34.22,0,0,0-2.54,3.22c-.83,1.1-1.66,2.2-2.48,3.31l.46.06c-.22-.81-.38-1.65-.63-2.46a.22.22,0,0,0-.42.12Z"/></g><g id="Layer_5" data-name="Layer 5"><path class="cls-2" d="M34.18,38.62a16.32,16.32,0,0,1-1.8-.83,6.15,6.15,0,0,1-1.6-1.12A6.81,6.81,0,0,1,29.5,33.5c-.15-.63-1.11-.36-1,.26a7.51,7.51,0,0,0,1.55,3.61,6.61,6.61,0,0,0,1.75,1.26,19.58,19.58,0,0,0,2.08,1,.51.51,0,0,0,.62-.35.53.53,0,0,0-.35-.62Z"/><path class="cls-2" d="M29.51,43.7a6.87,6.87,0,0,1-3.63-4.08.5.5,0,0,0-1,.27A7.9,7.9,0,0,0,29,44.56a.51.51,0,0,0,.69-.18.49.49,0,0,0-.18-.68Z"/><path class="cls-2" d="M25.76,49a10.92,10.92,0,0,1-3.42-4.66.53.53,0,0,0-.62-.35.52.52,0,0,0-.35.62,12,12,0,0,0,3.69,5.1.51.51,0,0,0,.7,0,.5.5,0,0,0,0-.71Z"/><path class="cls-2" d="M21.31,55.21a14.37,14.37,0,0,1-1.81-3.27.51.51,0,0,0-.62-.35.5.5,0,0,0-.35.61,15.16,15.16,0,0,0,1.92,3.51.5.5,0,0,0,.68.18.49.49,0,0,0,.18-.68Z"/><path class="cls-2" d="M18.2,59.18c-.12-.12-.23-.26-.34-.39s.06.08,0,0l0-.05a.44.44,0,0,1-.08-.11c-.06-.07-.1-.14-.15-.21a6.84,6.84,0,0,1-.5-.92.48.48,0,0,0-.29-.23.49.49,0,0,0-.39.05.5.5,0,0,0-.23.3.56.56,0,0,0,.05.38,6.89,6.89,0,0,0,1.23,1.87.5.5,0,0,0,.71,0,.51.51,0,0,0,0-.71Z"/><path class="cls-2" d="M14.33,61.91l-.14-.11.1.08a5.86,5.86,0,0,1-1-1,.47.47,0,0,0-.35-.15.51.51,0,0,0-.5.5l0,.13a.45.45,0,0,0,.13.22,5.79,5.79,0,0,0,1.24,1.18.5.5,0,0,0,.38,0,.5.5,0,0,0,.3-.23.51.51,0,0,0,.05-.38l-.05-.12a.39.39,0,0,0-.18-.18Z"/><path class="cls-2" d="M9.14,63.71a2.06,2.06,0,0,1-.25-.26l.08.1a1.57,1.57,0,0,1-.22-.38l.05.12a1.73,1.73,0,0,1-.12-.43l0,.13v-.06a.49.49,0,0,0-.15-.35.49.49,0,0,0-.35-.15.51.51,0,0,0-.35.15.49.49,0,0,0-.15.35,2.36,2.36,0,0,0,.25.87,2.1,2.1,0,0,0,.49.62.55.55,0,0,0,.36.15.51.51,0,0,0,.35-.15.5.5,0,0,0,0-.71Z"/><path class="cls-2" d="M3.06,64.6l-.19-.06.12,0a2.33,2.33,0,0,1-.34-.2l.1.07a1.64,1.64,0,0,1-.3-.29l.08.1a1.68,1.68,0,0,1-.2-.34l0,.11a1.39,1.39,0,0,1-.06-.19.58.58,0,0,0-.23-.3.53.53,0,0,0-.39,0,.5.5,0,0,0-.35.61,2.07,2.07,0,0,0,1.44,1.45.49.49,0,0,0,.39,0,.53.53,0,0,0,.23-.3.5.5,0,0,0-.05-.38.56.56,0,0,0-.3-.23Z"/></g></svg>