<svg xmlns="http://www.w3.org/2000/svg" viewBox="0 0 70 70"><defs><style>.cls-1{fill:#f0d0a4;}.cls-2{fill:#2d2926;}.cls-3{fill:#e94b3c;}</style></defs><title>Artboard 1</title><g id="Layer_4" data-name="Layer 4"><path class="cls-1" d="M-114.19,31.15a94.21,94.21,0,0,1,19.4,19.72c3,4.1,5.76,8.56,10,11.44,4.4,3,11.51,3.19,16.84,3.19,17.5,0,33-1.5,47.59-1.11,4.7.12,17.73.72,22.41,1.11,6.87.57,5.5,0,18.5,0s17-2,22-3,7.72-2,13-7c1.93-1.84,10.42-11.39,11-14-7.42,6-6.63,5.19-13,9-15.31,9.15-28.84,8.28-38.37,7.72-9.91-.59-11.25-2-22.63-2.72-6.33-.42-11.75-2.13-18-1-11.06,2-6.76-.84-18-1-3.64,0-21.48,2.09-25,3s-9.1,3.64-12-2S-88,30.37-92.27,25.63a5.62,5.62,0,0,0-3.16-2.11,6.35,6.35,0,0,0-3.41.77c-2.76,1.19-8,3.74-15.66,6.78"/><path class="cls-2" d="M-114.38,31.34A96.35,96.35,0,0,1-95.83,50.2c2.44,3.29,4.62,6.81,7.5,9.75a18.25,18.25,0,0,0,4.53,3.53,19.21,19.21,0,0,0,5,1.69A55,55,0,0,0-67.64,66c4.87,0,9.74-.12,14.61-.29,8.85-.31,17.71-.82,26.57-.86,6.45,0,12.89.3,19.33.62,2.83.15,5.67.29,8.51.51,1.89.14,3.79.31,5.69.3s3.75-.11,5.63-.16c3.91-.11,7.83,0,11.75-.16a67.54,67.54,0,0,0,9.83-1c2.09-.39,4.15-.94,6.21-1.45a50,50,0,0,0,7.61-2,26.42,26.42,0,0,0,8-5.86c1.68-1.68,3.23-3.48,4.76-5.28a63.12,63.12,0,0,0,5-6.5A7.55,7.55,0,0,0,67,41.64a.53.53,0,0,0-.88-.51,82.69,82.69,0,0,1-7.66,5.79,101.14,101.14,0,0,1-9.54,5.45A57.37,57.37,0,0,1,23.69,58,120.1,120.1,0,0,1,3.56,56.22c-3.9-.66-7.81-1-11.75-1.34-5-.4-9.93-1.64-15-1.25-3.36.26-6.83,1.51-10.21.86-.87-.17-1.71-.47-2.57-.7a23.33,23.33,0,0,0-4-.69c-5.73-.52-11.57.41-17.25,1.11-2.89.36-5.78.74-8.65,1.21-2.23.36-4.31,1.07-6.5,1.6a8.29,8.29,0,0,1-4.58.07,6,6,0,0,1-3.33-3.45,80.13,80.13,0,0,1-3-8.09c-1.16-3.4-2.29-6.82-3.54-10.18A49.69,49.69,0,0,0-90.56,27a11.34,11.34,0,0,0-2.71-3.18c-1.9-1.44-3.85-1-5.88-.1-2.91,1.26-5.77,2.62-8.68,3.88-2.26,1-4.54,1.94-6.83,2.85-.71.29-.4,1.45.32,1.16,4.09-1.63,8.12-3.36,12.13-5.18,1.2-.54,2.4-1.1,3.62-1.62s2.58-1.08,3.89-.47a6.74,6.74,0,0,1,2.23,1.89c1.75,2.14,2.8,5,3.8,7.5,1.31,3.34,2.45,6.74,3.6,10.13,1,3,2,5.93,3.15,8.82,1.11,2.71,2.62,5.3,5.8,5.73,2.81.38,5.41-.86,8.09-1.48,2.29-.52,4.66-.8,7-1.12,3.24-.44,6.5-.83,9.75-1.18,2.42-.25,4.85-.54,7.28-.6a28.41,28.41,0,0,1,8.61,1,15.57,15.57,0,0,0,6.69.45,66.75,66.75,0,0,1,7.2-.88,49,49,0,0,1,7.55.63c4.66.64,9.35.85,14,1.49,3.06.42,6.08,1,9.13,1.42,3.54.46,7.12.66,10.68.79A62.89,62.89,0,0,0,43.4,55.87a73.32,73.32,0,0,0,12.65-6.26,60.17,60.17,0,0,0,6.09-4c1.6-1.22,3.17-2.49,4.73-3.75L66,41.36a7.56,7.56,0,0,1-1.2,2.26c-.72,1.08-1.51,2.11-2.31,3.13-1.73,2.19-3.55,4.31-5.43,6.36a36,36,0,0,1-6.36,5.72A22.68,22.68,0,0,1,42.22,62c-1.89.39-3.75.93-5.63,1.37a56.69,56.69,0,0,1-8,1.27c-4.15.36-8.31.29-12.47.34-2.43,0-4.86.11-7.29.19-4,.13-8-.33-12-.56C-9,64.3-14.87,64-20.71,63.85c-8.56-.21-17.12.2-25.67.56-4.61.2-9.22.39-13.84.49-4.21.1-8.45.22-12.66,0-3.71-.19-7.71-.65-11-2.55-3.53-2-6.09-5.54-8.42-8.8a103.4,103.4,0,0,0-17-18.88c-1.55-1.31-3.14-2.55-4.77-3.75-.24-.18-.56.23-.32.41Z"/></g><g id="Layer_1" data-name="Layer 1"><path class="cls-3" d="M56.5,51.5c-4,3-6,6-11,7s-12,3-19,3-17,1.36-26.5,1c-10.23-.38-19.5-4-27.5-4s-11-1-17,0-21.5,4-25.5,4A37.91,37.91,0,0,1-79,61c-6.84-2.37-6.24-5.3-9-12s-2.55-11.74-6-18c-1.49-2.7-7.34-3.89-10.24-2.85l-.24.19c-4.66,4.63-13.65,7.91-18.8,6.24a43.73,43.73,0,0,1-11.07-6,11,11,0,0,1-2.18-2.05,18.58,18.58,0,0,1-3-4.77c-.39-1.41,3.44-6.87,5.27-8.87,2.45-2.68,3.06-4.17,6.18-6,4.71-2.82,9.84-5.28,15.33-5.32a46.22,46.22,0,0,1,10.46,1.86c9.52,3,15.54,9.51,19.22,18.79,2.29,5.77,2.52,12.15,2.33,18.36-.08,2.71.27,7.07.29,8.12a10.68,10.68,0,0,0,1,4,13,13,0,0,0,3.86,3.6c1.69.85,3.26,0,5.54-.7,4.72-1.42,9.7-1.87,14.5-3h0l12-2h18l11,2s4.95,1.12,14.5,3c5.29,1,6.5,1,17.5,0s8.68-.7,15-1c9-.42,8-1,12-2a30,30,0,0,0,10-4c3-2,10.93-6.3,14-9C68.5,39.5,60.5,48.5,56.5,51.5Z"/><path class="cls-2" d="M56.25,51.07c-2,1.48-3.7,3.25-5.7,4.67a17,17,0,0,1-6.65,2.59c-5.62,1.21-11.22,2.6-17,2.67-11.47.14-22.92,2.07-34.35.22-5.35-.87-10.61-2.32-16-3-2.57-.3-5.14-.23-7.73-.33-2.15-.08-4.3-.27-6.45-.34a50.33,50.33,0,0,0-10.81,1.09c-4,.72-8.05,1.45-12.09,2.12A64.25,64.25,0,0,1-69.89,62a29.55,29.55,0,0,1-7.24-1,17.83,17.83,0,0,1-4.13-1.47,8,8,0,0,1-3.34-3.14,28.14,28.14,0,0,1-1.82-4.61c-.84-2.38-1.85-4.68-2.56-7.11s-1.27-5.23-2-7.8c-.67-2.2-1.48-4.9-3-6.7a8.49,8.49,0,0,0-4.6-2.49,10.86,10.86,0,0,0-5.4-.11,4.57,4.57,0,0,0-1.76,1.27A22.48,22.48,0,0,1-108.85,31c-3.71,2.21-8.56,4-13,3.38a21.44,21.44,0,0,1-7-2.86,52.08,52.08,0,0,1-4.89-3.14,15.81,15.81,0,0,1-4-4.33,6.59,6.59,0,0,1-1.33-2.5,3.68,3.68,0,0,1,.6-1.83c1.78-3.54,4.48-6.53,7-9.5a20.32,20.32,0,0,1,6-4.37,33.51,33.51,0,0,1,8.15-3.3c4.62-1.11,9.29-.27,13.8.95A28.27,28.27,0,0,1-91.61,10a32.57,32.57,0,0,1,7.55,11c2.41,5.53,3,11.47,2.91,17.44,0,2.46,0,4.89.09,7.35a26.49,26.49,0,0,0,.48,5,8.53,8.53,0,0,0,3,4.54,5.19,5.19,0,0,0,5.32,1.41c3-.84,5.81-1.69,8.84-2.24,2.69-.49,5.37-1,8.06-1.53,2.26-.43,4.53-.76,6.8-1.13l4-.67c.35-.06.71-.14,1.06-.18s-.16,0,.18,0h15.51c.73,0,1.46,0,2.18,0,.25,0-.18,0,.15,0s.81.15,1.22.22l8.36,1.52c5.58,1,11.11,2.37,16.69,3.42a33.47,33.47,0,0,0,7.93.53c4.73-.23,9.45-.78,14.18-1.18,2.22-.19,4.43-.32,6.65-.4A65.79,65.79,0,0,0,40,54.31a22.74,22.74,0,0,0,2.65-.75c1.73-.56,3.51-.93,5.24-1.47a26.3,26.3,0,0,0,6.62-3c1.5-1,3-1.89,4.55-2.8,3.34-2,6.87-3.9,9.82-6.46l-.7-.7Q66,41.58,63.73,43.93a65.52,65.52,0,0,1-7.48,7.14c-.51.38,0,1.25.5.86a65.63,65.63,0,0,0,7.52-7.11c1.55-1.63,3.09-3.28,4.58-5a.5.5,0,0,0-.7-.7C65,41.87,61.16,43.87,57.6,46c-1.67,1-3.29,2.13-5,3.07a31.47,31.47,0,0,1-7.18,2.67,58,58,0,0,1-6.85,1.79c-3.39.47-6.84.51-10.26.64-7.25.26-14.46,1.58-21.71,1.6a48.77,48.77,0,0,1-9.53-1.36c-3.57-.72-7.14-1.45-10.7-2.23-1.44-.31-2.9-.55-4.35-.82-2.43-.44-4.89-1-7.35-1.33a40.28,40.28,0,0,0-4.79,0h-9.33a35.08,35.08,0,0,0-4.35,0c-2.56.34-5.11.86-7.66,1.28-2.94.49-5.84,1.1-8.77,1.62s-6.16,1-9.16,1.86c-1.25.35-2.47.88-3.74,1.14a3.88,3.88,0,0,1-3.53-1.11,12,12,0,0,1-2.13-2.2,7.52,7.52,0,0,1-1-3.07A46.92,46.92,0,0,1-80.15,44c-.22-5.54.24-11-.83-16.52C-82.74,18.41-88.31,9.72-96.5,5.25a37.65,37.65,0,0,0-12.57-3.91,21.19,21.19,0,0,0-6.31-.13,28,28,0,0,0-8.07,2.56,32.48,32.48,0,0,0-6.77,4,40.64,40.64,0,0,0-4.47,4.89,37.62,37.62,0,0,0-3.22,4.3c-.8,1.24-2,2.85-2.1,4.38s1.38,3.23,2.22,4.38A16.37,16.37,0,0,0-134,29.36,54.71,54.71,0,0,0-129,32.58a22.15,22.15,0,0,0,6.92,2.8c4.2.66,8.71-.83,12.4-2.75a29.23,29.23,0,0,0,5.35-3.75c1.35-1.14,4.18-.6,5.73-.19a9.59,9.59,0,0,1,2.67,1.1,5.53,5.53,0,0,1,2,2.5,38.49,38.49,0,0,1,2.76,8A70.91,70.91,0,0,0-88.91,48c.77,2.07,1.54,4.12,2.3,6.19A12.86,12.86,0,0,0-84.68,58a10,10,0,0,0,4.07,2.88,21.83,21.83,0,0,0,3.94,1.2,28.68,28.68,0,0,0,6.89.89,69.13,69.13,0,0,0,9.51-1.24c4.08-.67,8.14-1.41,12.21-2.13a49.41,49.41,0,0,1,11.18-1c2.25.11,4.48.28,6.73.34a67.17,67.17,0,0,1,8,.48c5.52.82,10.93,2.29,16.46,3.05a91.84,91.84,0,0,0,17.78.27c2.9-.17,5.81-.39,8.72-.56,2.55-.15,5.1-.12,7.65-.25,5.63-.28,11.08-1.71,16.58-2.85a15.64,15.64,0,0,0,6.23-2.66c1.9-1.4,3.58-3.08,5.46-4.51C57.26,51.55,56.76,50.68,56.25,51.07Z"/></g><g id="Layer_5" data-name="Layer 5"><path class="cls-2" d="M2.68,65.57A4.48,4.48,0,0,0,4,63.78a.49.49,0,0,0,0-.39.53.53,0,0,0-.3-.23.51.51,0,0,0-.38.05.57.57,0,0,0-.23.3l0,.05,0-.12a4.15,4.15,0,0,1-.52.89l.07-.1a4.1,4.1,0,0,1-.61.64.48.48,0,0,0-.14.35.5.5,0,0,0,.14.35.49.49,0,0,0,.36.15.61.61,0,0,0,.35-.15Z"/><path class="cls-2" d="M9.84,65.64a4,4,0,0,0,1.48-1.46.5.5,0,0,0-.18-.68.51.51,0,0,0-.69.18,3.19,3.19,0,0,1-.26.38l.08-.1a3.64,3.64,0,0,1-.62.62l.1-.08a2.36,2.36,0,0,1-.42.28.5.5,0,1,0,.51.86Z"/><path class="cls-2" d="M15.53,66A3.65,3.65,0,0,0,17,65.12a3.81,3.81,0,0,0,.92-1.36.53.53,0,0,0-.05-.39.53.53,0,0,0-.3-.23.53.53,0,0,0-.62.35c0,.1.05-.11,0,0s0,.05,0,.08l-.07.15-.18.28a.15.15,0,0,1,0,.06l0,0c.05-.07,0,0,0,0l-.06.06a1.88,1.88,0,0,1-.24.25l-.12.1-.07.06s.08-.06,0,0l-.28.19a1.59,1.59,0,0,1-.29.15s-.13,0,0,0l-.08,0-.17.06a.5.5,0,1,0,.27,1Z"/><path class="cls-2" d="M21.65,66.08A6.46,6.46,0,0,0,24.84,64a.5.5,0,0,0-.18-.68.51.51,0,0,0-.68.18l-.07.09s-.07.09,0,0l-.13.15a2.76,2.76,0,0,1-.3.29l-.08.07,0,0-.05,0-.09.06c-.12.08-.23.16-.36.23a6.24,6.24,0,0,1-.73.37l-.21.1-.1,0s0,0,0,0l-.41.17a.51.51,0,0,0-.35.61.49.49,0,0,0,.61.35Z"/><path class="cls-2" d="M29.5,65.54a9.66,9.66,0,0,0,1.8-1.87.5.5,0,0,0,.05-.38.5.5,0,0,0-.23-.3.5.5,0,0,0-.38-.05.57.57,0,0,0-.3.23.94.94,0,0,0-.09.12s0-.07,0,0l-.05.06c-.07.08-.13.16-.2.23a5.92,5.92,0,0,1-.41.45,8.77,8.77,0,0,1-.91.81.51.51,0,0,0-.15.35.53.53,0,0,0,.15.36.5.5,0,0,0,.35.14.6.6,0,0,0,.36-.14Z"/><path class="cls-2" d="M36.25,63.91a11.59,11.59,0,0,0,1.37-1.59.51.51,0,0,0,.05-.38.58.58,0,0,0-.23-.3.53.53,0,0,0-.39,0,.57.57,0,0,0-.3.23l-.24.32.08-.1a10.57,10.57,0,0,1-1.05,1.17.5.5,0,1,0,.71.7Z"/><path class="cls-2" d="M41.42,63.16A14.83,14.83,0,0,0,42.6,62a.57.57,0,0,0,.14-.35.52.52,0,0,0-.14-.36.48.48,0,0,0-.36-.14.46.46,0,0,0-.35.14,13.29,13.29,0,0,1-1.17,1.2.47.47,0,0,0-.15.35.49.49,0,0,0,.15.36.5.5,0,0,0,.7,0Z"/><path class="cls-2" d="M46.64,61.57l1-1.32a.43.43,0,0,0,.05-.38.47.47,0,0,0-.23-.3.5.5,0,0,0-.38,0l-.12,0a.45.45,0,0,0-.18.18l-1,1.32a.51.51,0,0,0-.05.38.47.47,0,0,0,.23.3.5.5,0,0,0,.38,0l.12,0a.39.39,0,0,0,.18-.18Z"/><path class="cls-2" d="M50.35,59.94a3.4,3.4,0,0,0,1-1.75.53.53,0,0,0,0-.39.48.48,0,0,0-.3-.22.5.5,0,0,0-.61.34,3.5,3.5,0,0,1-.17.55l0-.12a2.94,2.94,0,0,1-.39.66l.08-.1q-.13.17-.3.33a.5.5,0,0,0,.71.7Z"/><path class="cls-2" d="M54.13,57.47a2.53,2.53,0,0,0,.47-1.79.5.5,0,0,0-.14-.35.5.5,0,0,0-.71,0,.51.51,0,0,0-.15.35,1.69,1.69,0,0,1,0,.55l0-.13a2.44,2.44,0,0,1-.14.53l.05-.12a2.13,2.13,0,0,1-.27.46.5.5,0,0,0,0,.38.5.5,0,0,0,.23.3.53.53,0,0,0,.39.05.61.61,0,0,0,.3-.23Z"/></g></svg>